<svg xmlns="http://www.w3.org/2000/svg" xmlns:xlink="http://www.w3.org/1999/xlink" width="500" zoomAndPan="magnify" viewBox="0 0 375 374.999991" height="500" preserveAspectRatio="xMidYMid meet" version="1.0"><defs><g/><clipPath id="0702c9a6f7"><path d="M 41.058594 41.058594 L 333.941406 41.058594 L 333.941406 333.941406 L 41.058594 333.941406 Z M 41.058594 41.058594 " clip-rule="nonzero"/></clipPath><clipPath id="9944039b0a"><path d="M 187.5 41.058594 C 106.625 41.058594 41.058594 106.625 41.058594 187.5 C 41.058594 268.375 106.625 333.941406 187.5 333.941406 C 268.375 333.941406 333.941406 268.375 333.941406 187.5 C 333.941406 106.625 268.375 41.058594 187.5 41.058594 Z M 187.5 41.058594 " clip-rule="nonzero"/></clipPath><clipPath id="c60752db5a"><path d="M 117.03125 132.578125 L 257.96875 132.578125 L 257.96875 273.515625 L 117.03125 273.515625 Z M 117.03125 132.578125 " clip-rule="nonzero"/></clipPath><clipPath id="675198e094"><path d="M 187.5 132.578125 C 148.582031 132.578125 117.03125 164.125 117.03125 203.046875 C 117.03125 241.964844 148.582031 273.515625 187.5 273.515625 C 226.417969 273.515625 257.96875 241.964844 257.96875 203.046875 C 257.96875 164.125 226.417969 132.578125 187.5 132.578125 Z M 187.5 132.578125 " clip-rule="nonzero"/></clipPath><clipPath id="9ea156c874"><path d="M 115.65625 155 L 252.90625 155 L 252.90625 273.371094 L 115.65625 273.371094 Z M 115.65625 155 " clip-rule="nonzero"/></clipPath><clipPath id="2c73d39f16"><path d="M 253 262 L 262 262 L 262 272 L 253 272 Z M 253 262 " clip-rule="nonzero"/></clipPath><clipPath id="7890b1d3df"><path d="M 273.53125 283.3125 L 236.890625 262.785156 L 268.417969 206.515625 L 305.058594 227.042969 Z M 273.53125 283.3125 " clip-rule="nonzero"/></clipPath><clipPath id="d072bb989d"><path d="M 262.605469 302.816406 L 225.964844 282.289062 L 268.488281 206.390625 L 305.128906 226.917969 Z M 262.605469 302.816406 " clip-rule="nonzero"/></clipPath><clipPath id="8f25dd1b6b"><path d="M 268 257 L 270 257 L 270 258 L 268 258 Z M 268 257 " clip-rule="nonzero"/></clipPath><clipPath id="9aca586764"><path d="M 273.53125 283.3125 L 236.890625 262.785156 L 268.417969 206.515625 L 305.058594 227.042969 Z M 273.53125 283.3125 " clip-rule="nonzero"/></clipPath><clipPath id="2533f02f3b"><path d="M 262.605469 302.816406 L 225.964844 282.289062 L 268.488281 206.390625 L 305.128906 226.917969 Z M 262.605469 302.816406 " clip-rule="nonzero"/></clipPath><clipPath id="64075b2a97"><path d="M 260 251 L 284 251 L 284 267 L 260 267 Z M 260 251 " clip-rule="nonzero"/></clipPath><clipPath id="41716ef76a"><path d="M 273.53125 283.3125 L 236.890625 262.785156 L 268.417969 206.515625 L 305.058594 227.042969 Z M 273.53125 283.3125 " clip-rule="nonzero"/></clipPath><clipPath id="03424ea029"><path d="M 262.605469 302.816406 L 225.964844 282.289062 L 268.488281 206.390625 L 305.128906 226.917969 Z M 262.605469 302.816406 " clip-rule="nonzero"/></clipPath><clipPath id="b058ddc2cd"><path d="M 266 240 L 282 240 L 282 245 L 266 245 Z M 266 240 " clip-rule="nonzero"/></clipPath><clipPath id="dcf68f42b6"><path d="M 273.53125 283.3125 L 236.890625 262.785156 L 268.417969 206.515625 L 305.058594 227.042969 Z M 273.53125 283.3125 " clip-rule="nonzero"/></clipPath><clipPath id="1945bd3b19"><path d="M 262.605469 302.816406 L 225.964844 282.289062 L 268.488281 206.390625 L 305.128906 226.917969 Z M 262.605469 302.816406 " clip-rule="nonzero"/></clipPath><clipPath id="179a02bbac"><path d="M 268 221 L 292 221 L 292 229 L 268 229 Z M 268 221 " clip-rule="nonzero"/></clipPath><clipPath id="97968653b2"><path d="M 273.53125 283.3125 L 236.890625 262.785156 L 268.417969 206.515625 L 305.058594 227.042969 Z M 273.53125 283.3125 " clip-rule="nonzero"/></clipPath><clipPath id="eeff6fb39a"><path d="M 262.605469 302.816406 L 225.964844 282.289062 L 268.488281 206.390625 L 305.128906 226.917969 Z M 262.605469 302.816406 " clip-rule="nonzero"/></clipPath><clipPath id="9140b7e150"><path d="M 270 211 L 277 211 L 277 217 L 270 217 Z M 270 211 " clip-rule="nonzero"/></clipPath><clipPath id="8c10f2fc47"><path d="M 273.53125 283.3125 L 236.890625 262.785156 L 268.417969 206.515625 L 305.058594 227.042969 Z M 273.53125 283.3125 " clip-rule="nonzero"/></clipPath><clipPath id="745a060e2d"><path d="M 262.605469 302.816406 L 225.964844 282.289062 L 268.488281 206.390625 L 305.128906 226.917969 Z M 262.605469 302.816406 " clip-rule="nonzero"/></clipPath><clipPath id="60db1dec65"><path d="M 92 193 L 104 193 L 104 197 L 92 197 Z M 92 193 " clip-rule="nonzero"/></clipPath><clipPath id="0fbdb65d00"><path d="M 115.546875 206.253906 L 74.886719 195.722656 L 91.058594 133.285156 L 131.71875 143.8125 Z M 115.546875 206.253906 " clip-rule="nonzero"/></clipPath><clipPath id="28d4eb10dd"><path d="M 69.363281 217.386719 L 110.023438 227.914062 L 131.832031 143.695312 L 91.171875 133.164062 Z M 69.363281 217.386719 " clip-rule="nonzero"/></clipPath><clipPath id="f265221e1b"><path d="M 96 179 L 97 179 L 97 181 L 96 181 Z M 96 179 " clip-rule="nonzero"/></clipPath><clipPath id="24cc835d74"><path d="M 115.546875 206.253906 L 74.886719 195.722656 L 91.058594 133.285156 L 131.71875 143.8125 Z M 115.546875 206.253906 " clip-rule="nonzero"/></clipPath><clipPath id="21c289a27d"><path d="M 69.363281 217.386719 L 110.023438 227.914062 L 131.832031 143.695312 L 91.171875 133.164062 Z M 69.363281 217.386719 " clip-rule="nonzero"/></clipPath><clipPath id="d9bd3abfdc"><path d="M 80 175 L 107 175 L 107 183 L 80 183 Z M 80 175 " clip-rule="nonzero"/></clipPath><clipPath id="66dc044ee4"><path d="M 115.546875 206.253906 L 74.886719 195.722656 L 91.058594 133.285156 L 131.71875 143.8125 Z M 115.546875 206.253906 " clip-rule="nonzero"/></clipPath><clipPath id="40020dfd7e"><path d="M 69.363281 217.386719 L 110.023438 227.914062 L 131.832031 143.695312 L 91.171875 133.164062 Z M 69.363281 217.386719 " clip-rule="nonzero"/></clipPath><clipPath id="012b106fe2"><path d="M 96 161 L 110 161 L 110 171 L 96 171 Z M 96 161 " clip-rule="nonzero"/></clipPath><clipPath id="839531e34f"><path d="M 115.546875 206.253906 L 74.886719 195.722656 L 91.058594 133.285156 L 131.71875 143.8125 Z M 115.546875 206.253906 " clip-rule="nonzero"/></clipPath><clipPath id="1fa81aef1e"><path d="M 69.363281 217.386719 L 110.023438 227.914062 L 131.832031 143.695312 L 91.171875 133.164062 Z M 69.363281 217.386719 " clip-rule="nonzero"/></clipPath><clipPath id="eae51501dd"><path d="M 103 138 L 117 138 L 117 160 L 103 160 Z M 103 138 " clip-rule="nonzero"/></clipPath><clipPath id="21e24f751f"><path d="M 115.546875 206.253906 L 74.886719 195.722656 L 91.058594 133.285156 L 131.71875 143.8125 Z M 115.546875 206.253906 " clip-rule="nonzero"/></clipPath><clipPath id="766a9e90b6"><path d="M 69.363281 217.386719 L 110.023438 227.914062 L 131.832031 143.695312 L 91.171875 133.164062 Z M 69.363281 217.386719 " clip-rule="nonzero"/></clipPath><clipPath id="8b9b9168e6"><path d="M 121 141 L 126 141 L 126 150 L 121 150 Z M 121 141 " clip-rule="nonzero"/></clipPath><clipPath id="d1474bfe0d"><path d="M 115.546875 206.253906 L 74.886719 195.722656 L 91.058594 133.285156 L 131.71875 143.8125 Z M 115.546875 206.253906 " clip-rule="nonzero"/></clipPath><clipPath id="831ce6162c"><path d="M 69.363281 217.386719 L 110.023438 227.914062 L 131.832031 143.695312 L 91.171875 133.164062 Z M 69.363281 217.386719 " clip-rule="nonzero"/></clipPath></defs><g clip-path="url(#0702c9a6f7)"><g clip-path="url(#9944039b0a)"><path fill="#d8d6d3" d="M 41.058594 41.058594 L 333.941406 41.058594 L 333.941406 333.941406 L 41.058594 333.941406 Z M 41.058594 41.058594 " fill-opacity="1" fill-rule="nonzero"/></g></g><g clip-path="url(#c60752db5a)"><g clip-path="url(#675198e094)"><path fill="#ffffff" d="M 117.03125 132.578125 L 257.96875 132.578125 L 257.96875 273.515625 L 117.03125 273.515625 Z M 117.03125 132.578125 " fill-opacity="1" fill-rule="nonzero"/></g></g><g clip-path="url(#9ea156c874)"><path fill="#000000" d="M 252.492188 216.3125 C 252.535156 225.085938 250.09375 233.664062 246.164062 241.425781 C 233.710938 260.730469 212.007812 273.515625 187.320312 273.515625 C 173.832031 273.515625 161.238281 269.699219 150.554688 263.085938 C 146.75 258.746094 143.589844 253.890625 141.261719 248.6875 C 137.171875 246.351562 133.039062 243.980469 129.617188 240.75 C 127.878906 239.109375 126.347656 237.265625 124.957031 235.320312 C 124.773438 235.058594 124.589844 234.800781 124.410156 234.539062 C 119.257812 227.027344 116.070312 218.085938 115.851562 208.976562 C 115.742188 204.375 116.410156 199.738281 117.804688 195.417969 C 119.164062 191.1875 121.21875 187.257812 123.902344 183.957031 C 127.082031 179.582031 132.238281 176.910156 135.210938 172.394531 C 136.691406 170.15625 137.566406 167.519531 137.726562 164.839844 C 137.839844 162.875 137.578125 160.902344 137.761719 158.941406 C 137.890625 157.585938 138.34375 156.101562 139.535156 155.445312 C 140.570312 154.875 141.914062 155.121094 142.875 155.8125 C 143.832031 156.503906 144.460938 157.566406 144.917969 158.65625 C 146.957031 163.550781 145.921875 169.277344 143.523438 174.007812 C 141.128906 178.738281 137.496094 182.703125 134.074219 186.753906 C 130.652344 190.804688 127.335938 195.121094 125.757812 200.183594 C 123.898438 206.144531 124.667969 212.773438 127.339844 218.417969 C 130.007812 224.0625 134.484375 228.75 139.402344 231.800781 C 140.785156 227.765625 139.972656 223.324219 138.816406 219.214844 C 137.660156 215.105469 136.160156 211 136.1875 206.734375 C 136.203125 204.640625 136.585938 202.5625 136.96875 200.503906 C 137.324219 198.597656 137.6875 196.671875 138.480469 194.902344 C 138.949219 193.859375 139.714844 192.777344 140.855469 192.640625 C 141.675781 192.542969 142.492188 192.992188 143.011719 193.632812 C 143.53125 194.277344 143.800781 195.085938 143.980469 195.890625 C 144.71875 199.140625 144.25 202.523438 144.308594 205.855469 C 144.34375 207.617188 144.574219 209.5 145.710938 210.847656 C 146.410156 211.671875 147.382812 212.214844 148.34375 212.707031 C 149.628906 213.363281 150.9375 213.972656 152.335938 214.535156 C 152.019531 210.757812 151.886719 206.96875 151.933594 203.179688 C 151.945312 202.214844 151.972656 201.234375 152.308594 200.332031 C 152.644531 199.429688 153.351562 198.609375 154.289062 198.390625 C 155.335938 198.148438 156.445312 198.714844 157.113281 199.558594 C 157.777344 200.398438 158.082031 201.46875 158.292969 202.523438 C 158.964844 205.914062 158.867188 209.546875 160.46875 212.609375 C 161.78125 215.121094 164.089844 216.9375 165.9375 219.082031 C 168.035156 221.507812 169.574219 224.40625 170.476562 227.558594 C 181.128906 229.242188 192.226562 227.996094 202.097656 223.976562 C 199.941406 219.015625 195.621094 215.320312 191.054688 212.425781 C 190.351562 211.980469 189.542969 211.367188 189.636719 210.539062 C 189.738281 209.601562 190.898438 209.226562 191.84375 209.160156 C 196.640625 208.820312 201.371094 210.886719 205.121094 213.902344 C 206.640625 215.125 208.039062 216.507812 209.652344 217.605469 C 211.265625 218.703125 213.164062 219.511719 215.054688 219.324219 C 217.253906 218.519531 218.4375 216.121094 218.945312 213.832031 C 219.449219 211.546875 219.507812 209.132812 220.472656 207 C 221.382812 204.992188 223.011719 203.417969 224.457031 201.757812 C 225.90625 200.09375 227.253906 198.164062 227.390625 195.964844 C 227.449219 195.007812 227.28125 194.015625 227.359375 193.074219 C 227.402344 192.550781 228.035156 192.3125 228.425781 192.664062 C 230.28125 194.355469 231.910156 196.332031 233.480469 198.488281 C 237.730469 198.421875 241.988281 199.34375 245.804688 201.007812 C 246.734375 199.171875 247.660156 197.339844 248.589844 195.503906 C 248.8125 195.066406 249.203125 194.550781 249.667969 194.703125 C 249.855469 194.761719 249.988281 194.917969 250.105469 195.074219 C 252.496094 198.179688 252.109375 202.5 252.113281 206.417969 C 252.117188 209.71875 252.476562 213.011719 252.492188 216.3125 " fill-opacity="1" fill-rule="nonzero"/></g><path fill="#d8d6d3" d="M 225.472656 207.429688 C 225.472656 206.640625 226.113281 206 226.902344 206 C 227.691406 206 228.332031 206.640625 228.332031 207.429688 C 228.332031 208.21875 227.691406 208.859375 226.902344 208.859375 C 226.113281 208.859375 225.472656 208.21875 225.472656 207.429688 " fill-opacity="1" fill-rule="nonzero"/><path fill="#d8d6d3" d="M 240.074219 210.894531 C 240.074219 210.101562 240.714844 209.464844 241.503906 209.464844 C 242.292969 209.464844 242.933594 210.101562 242.933594 210.894531 C 242.933594 211.683594 242.292969 212.324219 241.503906 212.324219 C 240.714844 212.324219 240.074219 211.683594 240.074219 210.894531 " fill-opacity="1" fill-rule="nonzero"/><path fill="#60697d" d="M 230.453125 240.28125 C 230.222656 239.9375 230 239.589844 229.785156 239.238281 C 228.964844 237.898438 228.144531 236.550781 227.199219 235.292969 C 225.625 233.300781 223.949219 231.355469 221.980469 229.75 C 218.722656 227.136719 214.8125 225.328125 210.703125 224.585938 C 206.828125 223.953125 202.472656 223.734375 198.886719 225.566406 C 197.683594 226.269531 196.222656 228.085938 197.222656 229.457031 C 198.347656 230.9375 200.882812 231.308594 202.582031 231.875 C 205.105469 232.628906 207.121094 233.421875 209.324219 234.863281 C 210.996094 235.933594 212.230469 236.84375 213.683594 238.238281 C 215.441406 240.136719 216.792969 242.171875 217.867188 244.695312 C 218.335938 245.824219 218.722656 246.476562 219.046875 247.585938 C 219.175781 248.046875 219.894531 247.882812 219.773438 247.386719 C 219.550781 246.59375 219.191406 245.84375 218.859375 245.09375 C 218.515625 244.316406 218.1875 243.527344 217.796875 242.773438 C 216.921875 241.023438 215.753906 239.441406 214.46875 237.972656 C 213.277344 236.734375 211.894531 235.683594 210.480469 234.714844 C 209.0625 233.761719 207.585938 232.894531 205.996094 232.269531 C 204.648438 231.707031 203.25 231.277344 201.847656 230.875 C 199.988281 230.375 197.714844 229.652344 197.640625 228.519531 C 197.613281 227.648438 198.574219 226.453125 199.761719 225.964844 C 201.882812 225.027344 204.714844 224.742188 207.398438 224.941406 C 210.730469 225.113281 214.289062 226.066406 217.222656 227.566406 C 219.386719 228.6875 221.109375 229.875 222.78125 231.453125 C 224.511719 233.164062 226.074219 234.929688 227.320312 236.753906 C 228.03125 237.800781 228.679688 238.886719 229.347656 239.960938 C 229.601562 240.367188 229.871094 240.765625 230.140625 241.167969 C 230.191406 241.25 230.269531 241.3125 230.363281 241.339844 C 230.59375 241.40625 230.847656 241.21875 230.84375 240.976562 C 230.816406 240.707031 230.574219 240.511719 230.453125 240.28125 " fill-opacity="1" fill-rule="nonzero"/><path fill="#60697d" d="M 167.386719 237.929688 C 166.652344 232.597656 164.957031 227.296875 161.816406 222.878906 C 159.941406 220.210938 157.707031 217.777344 155.082031 215.835938 C 154.480469 215.390625 153.847656 214.996094 153.207031 214.613281 C 153.007812 214.511719 152.835938 214.335938 152.617188 214.292969 C 152.226562 214.230469 152.023438 214.785156 152.375 214.988281 C 154.925781 216.445312 156.9375 218.164062 158.949219 220.441406 C 160.574219 222.296875 162.058594 224.355469 163.261719 226.75 C 164.417969 228.96875 165.183594 231.199219 165.828125 233.785156 C 166.554688 236.746094 166.921875 239.28125 166.925781 242.328125 C 166.960938 244.855469 166.816406 247.601562 166.441406 249.792969 C 166.304688 250.699219 166.15625 251.605469 165.953125 252.5 C 165.878906 252.820312 165.804688 253.140625 165.734375 253.464844 C 165.707031 253.5625 165.722656 253.667969 165.773438 253.753906 C 165.925781 254.03125 166.386719 253.980469 166.460938 253.664062 C 166.589844 253.066406 166.738281 252.472656 166.851562 251.871094 C 167.195312 250.015625 167.464844 248.140625 167.59375 246.253906 C 167.71875 243.480469 167.769531 240.6875 167.386719 237.929688 " fill-opacity="1" fill-rule="nonzero"/><path fill="#60697d" d="M 234.894531 215.589844 C 234.835938 215.410156 234.636719 215.511719 234.503906 215.523438 C 234.421875 215.539062 234.148438 215.570312 233.945312 215.554688 C 233.5 215.519531 233.316406 215.523438 232.953125 215.238281 C 232.757812 215.078125 232.46875 214.765625 232.433594 214.40625 C 232.367188 214.039062 232.414062 213.445312 232.515625 213.007812 C 232.527344 212.9375 232.542969 212.871094 232.558594 212.804688 C 232.597656 212.660156 232.640625 212.519531 232.6875 212.378906 C 232.707031 212.304688 232.671875 212.246094 232.617188 212.214844 C 232.546875 212.136719 232.390625 212.164062 232.363281 212.277344 C 232.335938 212.417969 232.304688 212.558594 232.273438 212.699219 C 232.121094 213.269531 232.015625 213.851562 231.75 214.285156 C 231.347656 214.988281 230.652344 215.09375 229.9375 214.605469 C 229.824219 214.523438 229.757812 214.472656 229.632812 214.324219 C 229.582031 214.261719 229.554688 214.175781 229.472656 214.152344 C 229.261719 214.121094 229.238281 214.34375 229.367188 214.46875 C 229.792969 215.019531 230.578125 215.367188 231.257812 215.128906 C 231.65625 214.976562 231.929688 214.621094 232.113281 214.246094 C 232.136719 214.53125 232.199219 214.824219 232.375 215.058594 C 232.589844 215.351562 232.878906 215.609375 233.222656 215.746094 C 233.515625 215.84375 233.832031 215.851562 234.140625 215.859375 C 234.316406 215.855469 234.496094 215.832031 234.671875 215.800781 C 234.789062 215.789062 234.933594 215.734375 234.894531 215.589844 " fill-opacity="1" fill-rule="nonzero"/><path fill="#d8d6d3" d="M 231.941406 212.226562 C 232.085938 212.144531 232.273438 212.289062 232.207031 212.441406 C 232.199219 212.453125 232.191406 212.46875 232.183594 212.480469 C 232.152344 212.519531 232.113281 212.550781 232.082031 212.59375 C 231.996094 212.722656 232.078125 212.894531 232.164062 213.027344 C 232.199219 213.082031 232.234375 213.136719 232.285156 213.175781 C 232.449219 213.292969 232.675781 213.179688 232.84375 213.066406 C 232.960938 212.984375 233.09375 212.855469 233.035156 212.730469 C 233.019531 212.695312 232.988281 212.667969 232.96875 212.636719 C 232.925781 212.570312 232.910156 212.480469 232.953125 212.417969 C 232.992188 212.351562 233.09375 212.328125 233.152344 212.378906 C 233.199219 212.421875 233.203125 212.496094 233.238281 212.546875 C 233.277344 212.605469 233.347656 212.632812 233.417969 212.640625 C 233.632812 212.664062 233.851562 212.503906 233.898438 212.289062 C 233.933594 212.113281 233.859375 211.925781 233.734375 211.792969 C 233.609375 211.660156 233.445312 211.578125 233.277344 211.515625 C 233.054688 211.429688 232.824219 211.371094 232.585938 211.34375 C 232.386719 211.316406 232.179688 211.316406 231.988281 211.378906 C 231.800781 211.441406 231.625 211.582031 231.5625 211.769531 C 231.496094 211.960938 231.566406 212.199219 231.742188 212.296875 C 231.789062 212.324219 231.863281 212.269531 231.941406 212.226562 " fill-opacity="1" fill-rule="nonzero"/><path fill="#000000" d="M 241.476562 210.136719 C 240.582031 210.160156 240.585938 211.46875 241.476562 211.492188 C 242.367188 211.46875 242.367188 210.160156 241.476562 210.136719 " fill-opacity="1" fill-rule="nonzero"/><path fill="#000000" d="M 226.949219 206.777344 C 226.058594 206.796875 226.058594 208.105469 226.949219 208.132812 C 227.84375 208.109375 227.839844 206.800781 226.949219 206.777344 " fill-opacity="1" fill-rule="nonzero"/><g clip-path="url(#2c73d39f16)"><g clip-path="url(#7890b1d3df)"><g clip-path="url(#d072bb989d)"><path fill="#ffffff" d="M 253.488281 263.6875 C 253.871094 265.042969 254.902344 266.113281 255.777344 267.171875 C 256.925781 268.46875 258.050781 269.671875 259.199219 270.96875 C 260.410156 272.296875 262.449219 270.257812 261.140625 268.957031 C 259.066406 266.976562 256.886719 263.878906 254.125 262.984375 C 253.816406 262.808594 253.378906 263.300781 253.488281 263.6875 Z M 253.488281 263.6875 " fill-opacity="1" fill-rule="nonzero"/></g></g></g><g clip-path="url(#8f25dd1b6b)"><g clip-path="url(#9aca586764)"><g clip-path="url(#2533f02f3b)"><path fill="#ffffff" d="M 268.996094 257.121094 C 268.808594 257.015625 268.671875 257.261719 268.859375 257.367188 C 269.042969 257.472656 269.183594 257.222656 268.996094 257.121094 Z M 268.996094 257.121094 " fill-opacity="1" fill-rule="nonzero"/></g></g></g><g clip-path="url(#64075b2a97)"><g clip-path="url(#41716ef76a)"><g clip-path="url(#03424ea029)"><path fill="#ffffff" d="M 260.671875 253.191406 C 267.148438 257.796875 274.035156 261.816406 280.847656 265.964844 C 282.554688 267 284.085938 264.265625 282.378906 263.230469 C 275.566406 259.085938 268.847656 254.914062 261.71875 251.328125 C 260.503906 250.730469 259.625 252.441406 260.671875 253.191406 Z M 260.671875 253.191406 " fill-opacity="1" fill-rule="nonzero"/></g></g></g><g clip-path="url(#b058ddc2cd)"><g clip-path="url(#dcf68f42b6)"><g clip-path="url(#1945bd3b19)"><path fill="#ffffff" d="M 266.695312 241.714844 C 271.105469 243.453125 275.722656 244.242188 280.441406 244.847656 C 281.800781 245.039062 282.371094 243.152344 280.988281 242.707031 C 276.464844 241.316406 271.898438 240.144531 267.15625 240.015625 C 266.238281 239.910156 265.816406 241.386719 266.695312 241.714844 Z M 266.695312 241.714844 " fill-opacity="1" fill-rule="nonzero"/></g></g></g><g clip-path="url(#179a02bbac)"><g clip-path="url(#97968653b2)"><g clip-path="url(#eeff6fb39a)"><path fill="#ffffff" d="M 269.753906 228.824219 C 273.066406 228.886719 276.570312 227.585938 279.792969 226.78125 C 283.371094 225.929688 286.976562 225.175781 290.585938 224.261719 C 292.683594 223.722656 291.742188 220.746094 289.6875 221.0625 C 286.027344 221.625 282.449219 222.476562 278.867188 223.484375 C 275.730469 224.421875 271.964844 225.167969 269.261719 227.082031 C 268.535156 227.652344 268.800781 228.78125 269.753906 228.824219 Z M 269.753906 228.824219 " fill-opacity="1" fill-rule="nonzero"/></g></g></g><g clip-path="url(#9140b7e150)"><g clip-path="url(#8c10f2fc47)"><g clip-path="url(#745a060e2d)"><path fill="#ffffff" d="M 275.523438 211.25 C 273.757812 211.488281 272.226562 212.914062 270.777344 213.894531 C 269.230469 214.90625 270.707031 217.367188 272.253906 216.355469 C 273.800781 215.34375 275.722656 214.382812 276.726562 212.742188 C 277.214844 211.871094 276.324219 211.128906 275.523438 211.25 Z M 275.523438 211.25 " fill-opacity="1" fill-rule="nonzero"/></g></g></g><g fill="#000000" fill-opacity="1"><g transform="translate(133.161543, 142.323213)"><g><path d="M 16.015625 -10.375 C 16.441406 -10.65625 16.722656 -10.878906 16.859375 -11.046875 C 17.003906 -11.210938 17.09375 -11.328125 17.125 -11.390625 L 16.625 -12.140625 C 16.289062 -12.640625 15.953125 -13.132812 15.609375 -13.625 C 15.265625 -14.113281 14.925781 -14.609375 14.59375 -15.109375 C 14.125 -15.804688 13.671875 -16.492188 13.234375 -17.171875 C 12.804688 -17.859375 12.347656 -18.566406 11.859375 -19.296875 C 11.148438 -20.378906 10.4375 -21.453125 9.71875 -22.515625 C 9.007812 -23.585938 8.289062 -24.640625 7.5625 -25.671875 L -0.46875 -37.75 C -1.28125 -37.414062 -2.148438 -36.941406 -3.078125 -36.328125 C -4.023438 -35.691406 -4.875 -35.019531 -5.625 -34.3125 C -5.238281 -33.664062 -4.867188 -33.070312 -4.515625 -32.53125 C -4.171875 -31.988281 -3.820312 -31.453125 -3.46875 -30.921875 C -2.875 -30.023438 -2.269531 -29.15625 -1.65625 -28.3125 C -1.050781 -27.476562 -0.421875 -26.566406 0.234375 -25.578125 C 0.523438 -25.148438 0.789062 -24.691406 1.03125 -24.203125 C 1.28125 -23.710938 1.390625 -23.421875 1.359375 -23.328125 C 1.328125 -23.304688 1.140625 -23.390625 0.796875 -23.578125 C 0.460938 -23.765625 0.0507812 -23.992188 -0.4375 -24.265625 C -0.925781 -24.535156 -1.460938 -24.84375 -2.046875 -25.1875 C -2.640625 -25.539062 -3.203125 -25.875 -3.734375 -26.1875 C -4.265625 -26.5 -4.734375 -26.769531 -5.140625 -27 C -5.554688 -27.226562 -5.828125 -27.394531 -5.953125 -27.5 C -6.535156 -27.875 -7.015625 -28.171875 -7.390625 -28.390625 C -7.773438 -28.617188 -8.128906 -28.828125 -8.453125 -29.015625 C -8.773438 -29.203125 -9.109375 -29.394531 -9.453125 -29.59375 C -9.804688 -29.789062 -10.222656 -30.0625 -10.703125 -30.40625 C -10.722656 -30.445312 -10.882812 -30.40625 -11.1875 -30.28125 C -11.488281 -30.15625 -11.820312 -29.992188 -12.1875 -29.796875 C -12.5625 -29.609375 -12.929688 -29.40625 -13.296875 -29.1875 C -13.660156 -28.96875 -13.914062 -28.804688 -14.0625 -28.703125 C -14.363281 -28.503906 -14.644531 -28.296875 -14.90625 -28.078125 C -15.175781 -27.859375 -15.421875 -27.640625 -15.640625 -27.421875 C -14.703125 -25.753906 -13.695312 -24.054688 -12.625 -22.328125 C -11.5625 -20.609375 -10.457031 -18.882812 -9.3125 -17.15625 C -7.75 -14.800781 -6.234375 -12.5625 -4.765625 -10.4375 C -3.296875 -8.320312 -1.769531 -6.078125 -0.1875 -3.703125 L 1.546875 -1.078125 C 2.117188 -1.460938 2.734375 -1.820312 3.390625 -2.15625 C 4.054688 -2.488281 4.691406 -2.851562 5.296875 -3.25 C 5.566406 -3.425781 5.832031 -3.617188 6.09375 -3.828125 C 6.351562 -4.035156 6.59375 -4.269531 6.8125 -4.53125 C 6.507812 -4.9375 6.175781 -5.40625 5.8125 -5.9375 C 5.457031 -6.476562 5.09375 -7.035156 4.71875 -7.609375 C 4.019531 -8.660156 3.300781 -9.75 2.5625 -10.875 C 1.820312 -12.007812 1.15625 -13.046875 0.5625 -13.984375 C -0.0195312 -14.929688 -0.488281 -15.71875 -0.84375 -16.34375 C -1.207031 -16.976562 -1.378906 -17.300781 -1.359375 -17.3125 C -1.304688 -17.351562 -1.15625 -17.28125 -0.90625 -17.09375 C -0.664062 -16.914062 -0.398438 -16.722656 -0.109375 -16.515625 L 1 -15.65625 C 2.644531 -14.414062 4.445312 -13.195312 6.40625 -12 C 8.375 -10.8125 10.382812 -9.566406 12.4375 -8.265625 C 12.9375 -8.597656 13.53125 -8.945312 14.21875 -9.3125 C 14.914062 -9.6875 15.515625 -10.039062 16.015625 -10.375 Z M 16.015625 -10.375 "/></g></g></g><g fill="#000000" fill-opacity="1"><g transform="translate(152.206247, 129.791652)"><g><path d="M 17.953125 -12.1875 C 16.046875 -11.507812 14.160156 -10.925781 12.296875 -10.4375 C 10.429688 -9.957031 8.554688 -9.414062 6.671875 -8.8125 L 6.625 -8.84375 C 6.34375 -9.5 6.015625 -10.332031 5.640625 -11.34375 C 5.273438 -12.351562 5.03125 -13.300781 4.90625 -14.1875 C 5.007812 -14.34375 5.253906 -14.5 5.640625 -14.65625 C 6.035156 -14.820312 6.484375 -14.984375 6.984375 -15.140625 C 7.484375 -15.304688 8 -15.476562 8.53125 -15.65625 C 9.070312 -15.84375 9.539062 -16.066406 9.9375 -16.328125 C 9.570312 -17.367188 9.265625 -18.382812 9.015625 -19.375 C 8.765625 -20.363281 8.410156 -21.320312 7.953125 -22.25 L 7.9375 -22.296875 C 7.03125 -22.035156 6.132812 -21.765625 5.25 -21.484375 C 4.375 -21.203125 3.492188 -20.945312 2.609375 -20.71875 L 2.5625 -20.75 C 2.113281 -21.457031 1.800781 -22.265625 1.625 -23.171875 C 1.445312 -24.078125 1.210938 -24.941406 0.921875 -25.765625 L 0.953125 -25.8125 L 1.078125 -25.859375 C 1.984375 -26.242188 2.90625 -26.585938 3.84375 -26.890625 C 4.789062 -27.191406 5.738281 -27.488281 6.6875 -27.78125 C 7.632812 -28.070312 8.566406 -28.382812 9.484375 -28.71875 C 10.398438 -29.0625 11.285156 -29.476562 12.140625 -29.96875 L 12.125 -30.015625 C 11.8125 -31.003906 11.519531 -32.023438 11.25 -33.078125 C 10.988281 -34.128906 10.628906 -35.140625 10.171875 -36.109375 C 10.171875 -36.117188 9.878906 -36.046875 9.296875 -35.890625 C 8.710938 -35.742188 7.945312 -35.519531 7 -35.21875 C 6.0625 -34.914062 4.984375 -34.550781 3.765625 -34.125 C 2.546875 -33.707031 1.285156 -33.273438 -0.015625 -32.828125 C -1.328125 -32.390625 -2.625 -31.9375 -3.90625 -31.46875 C -5.195312 -31.007812 -6.390625 -30.566406 -7.484375 -30.140625 C -6.847656 -27.648438 -6.148438 -25.1875 -5.390625 -22.75 C -4.640625 -20.3125 -3.863281 -17.878906 -3.0625 -15.453125 C -2.257812 -13.035156 -1.4375 -10.613281 -0.59375 -8.1875 C 0.25 -5.769531 1.070312 -3.316406 1.875 -0.828125 C 4.71875 -1.484375 7.628906 -2.34375 10.609375 -3.40625 C 13.585938 -4.476562 16.535156 -5.472656 19.453125 -6.390625 C 19.398438 -7.304688 19.226562 -8.257812 18.9375 -9.25 C 18.65625 -10.25 18.335938 -11.203125 17.984375 -12.109375 Z M 17.953125 -12.1875 "/></g></g></g><g fill="#000000" fill-opacity="1"><g transform="translate(173.345127, 123.159393)"><g><path d="M 12.4375 -16.703125 C 12.925781 -17.984375 13.503906 -19.269531 14.171875 -20.5625 C 14.835938 -21.851562 15.507812 -23.140625 16.1875 -24.421875 C 16.863281 -25.710938 17.5 -27 18.09375 -28.28125 C 18.6875 -29.570312 19.140625 -30.859375 19.453125 -32.140625 C 18.472656 -32.242188 17.445312 -32.238281 16.375 -32.125 C 15.300781 -32.019531 14.285156 -31.976562 13.328125 -32 C 12.722656 -31.070312 12.191406 -30.144531 11.734375 -29.21875 C 11.285156 -28.300781 10.847656 -27.382812 10.421875 -26.46875 C 9.992188 -25.550781 9.539062 -24.644531 9.0625 -23.75 C 8.59375 -22.863281 8.066406 -22.003906 7.484375 -21.171875 C 7.429688 -21.117188 7.378906 -21.050781 7.328125 -20.96875 C 7.285156 -20.882812 7.265625 -20.859375 7.265625 -20.890625 C 7.140625 -22.597656 7.050781 -24.394531 7 -26.28125 C 6.945312 -28.164062 6.859375 -29.960938 6.734375 -31.671875 C 5.765625 -31.628906 4.757812 -31.609375 3.71875 -31.609375 C 2.6875 -31.617188 1.675781 -31.585938 0.6875 -31.515625 C 0.9375 -26.273438 1.085938 -21.050781 1.140625 -15.84375 C 1.203125 -10.632812 1.460938 -5.453125 1.921875 -0.296875 C 2.316406 -0.234375 2.804688 -0.179688 3.390625 -0.140625 C 3.984375 -0.109375 4.59375 -0.101562 5.21875 -0.125 C 5.851562 -0.15625 6.453125 -0.203125 7.015625 -0.265625 C 7.585938 -0.335938 8.078125 -0.441406 8.484375 -0.578125 C 8.453125 -1.421875 8.40625 -2.335938 8.34375 -3.328125 C 8.289062 -4.316406 8.226562 -5.320312 8.15625 -6.34375 C 8.09375 -7.363281 8.03125 -8.375 7.96875 -9.375 C 7.90625 -10.375 7.875 -11.304688 7.875 -12.171875 C 8.375 -11.359375 8.882812 -10.4375 9.40625 -9.40625 C 9.9375 -8.382812 10.472656 -7.34375 11.015625 -6.28125 C 11.554688 -5.226562 12.117188 -4.207031 12.703125 -3.21875 C 13.285156 -2.238281 13.90625 -1.40625 14.5625 -0.71875 C 15.519531 -0.726562 16.5625 -0.722656 17.6875 -0.703125 C 18.8125 -0.691406 19.847656 -0.816406 20.796875 -1.078125 Z M 12.4375 -16.703125 "/></g></g></g><g fill="#000000" fill-opacity="1"><g transform="translate(194.501864, 122.256348)"><g><path d="M 25.125 -21.578125 C 25.007812 -22.671875 24.613281 -23.695312 23.9375 -24.65625 C 23.238281 -25.5 22.394531 -26.207031 21.40625 -26.78125 C 20.414062 -27.363281 19.363281 -27.8125 18.25 -28.125 C 17.132812 -28.445312 15.988281 -28.628906 14.8125 -28.671875 C 13.632812 -28.710938 12.507812 -28.601562 11.4375 -28.34375 C 11.007812 -28.195312 10.617188 -28.015625 10.265625 -27.796875 C 9.117188 -26.984375 8.238281 -25.945312 7.625 -24.6875 C 7.007812 -23.425781 6.535156 -22.140625 6.203125 -20.828125 C 5.535156 -18.554688 4.988281 -16.257812 4.5625 -13.9375 C 4.132812 -11.613281 3.703125 -9.304688 3.265625 -7.015625 C 3.097656 -6.148438 2.984375 -5.285156 2.921875 -4.421875 C 2.867188 -3.554688 2.96875 -2.710938 3.21875 -1.890625 C 3.34375 -1.253906 3.566406 -0.707031 3.890625 -0.25 C 4.210938 0.207031 4.597656 0.613281 5.046875 0.96875 C 5.503906 1.332031 6.007812 1.628906 6.5625 1.859375 C 7.113281 2.085938 7.691406 2.300781 8.296875 2.5 C 9.117188 2.75 9.957031 2.941406 10.8125 3.078125 C 11.664062 3.210938 12.523438 3.257812 13.390625 3.21875 C 14.347656 3.1875 15.273438 3.046875 16.171875 2.796875 C 17.078125 2.554688 17.859375 2.144531 18.515625 1.5625 C 19.242188 0.832031 19.859375 -0.015625 20.359375 -0.984375 C 20.867188 -1.953125 21.257812 -2.945312 21.53125 -3.96875 L 22.015625 -5.390625 C 22.484375 -6.890625 22.867188 -8.367188 23.171875 -9.828125 C 23.472656 -11.296875 23.84375 -12.796875 24.28125 -14.328125 C 24.488281 -15.046875 24.664062 -15.765625 24.8125 -16.484375 C 24.957031 -17.203125 25.085938 -17.929688 25.203125 -18.671875 C 25.242188 -19.160156 25.269531 -19.644531 25.28125 -20.125 C 25.289062 -20.601562 25.238281 -21.085938 25.125 -21.578125 Z M 17.484375 -9.84375 C 17.472656 -9.78125 17.410156 -9.53125 17.296875 -9.09375 C 17.191406 -8.65625 17.054688 -8.148438 16.890625 -7.578125 C 16.679688 -6.972656 16.539062 -6.484375 16.46875 -6.109375 C 16.40625 -5.742188 16.328125 -5.4375 16.234375 -5.1875 C 16.140625 -4.9375 16.007812 -4.710938 15.84375 -4.515625 C 15.6875 -4.328125 15.4375 -4.085938 15.09375 -3.796875 C 14.539062 -3.390625 13.914062 -3.148438 13.21875 -3.078125 C 12.519531 -3.015625 11.851562 -3.078125 11.21875 -3.265625 C 10.582031 -3.460938 10.023438 -3.78125 9.546875 -4.21875 C 9.078125 -4.664062 8.765625 -5.222656 8.609375 -5.890625 C 8.523438 -6.910156 8.578125 -7.960938 8.765625 -9.046875 C 8.960938 -10.128906 9.097656 -11.195312 9.171875 -12.25 C 9.398438 -13.488281 9.675781 -14.71875 10 -15.9375 C 10.320312 -17.164062 10.726562 -18.300781 11.21875 -19.34375 C 11.851562 -20.5 12.773438 -21.351562 13.984375 -21.90625 C 14.535156 -22.144531 15.132812 -22.269531 15.78125 -22.28125 C 16.425781 -22.289062 17.007812 -22.109375 17.53125 -21.734375 C 18.132812 -21.253906 18.554688 -20.632812 18.796875 -19.875 C 19.046875 -19.113281 19.097656 -18.316406 18.953125 -17.484375 C 18.878906 -16.984375 18.796875 -16.441406 18.703125 -15.859375 C 18.617188 -15.285156 18.578125 -14.984375 18.578125 -14.953125 L 17.96875 -11.953125 Z M 17.484375 -9.84375 "/></g></g></g><g fill="#000000" fill-opacity="1"><g transform="translate(216.759165, 128.17653)"><g/></g></g><g fill="#000000" fill-opacity="1"><g transform="translate(226.464165, 132.165676)"><g><path d="M 18.984375 8.890625 C 19.109375 8.671875 19.269531 8.4375 19.46875 8.1875 C 19.664062 7.945312 19.863281 7.722656 20.0625 7.515625 C 20.289062 7.253906 20.503906 6.988281 20.703125 6.71875 C 20.484375 6.613281 20.128906 6.367188 19.640625 5.984375 C 19.160156 5.609375 18.609375 5.171875 17.984375 4.671875 C 17.359375 4.171875 16.703125 3.640625 16.015625 3.078125 C 15.328125 2.523438 14.675781 2.003906 14.0625 1.515625 C 13.445312 1.035156 12.910156 0.613281 12.453125 0.25 C 11.992188 -0.101562 11.664062 -0.320312 11.46875 -0.40625 L 11.484375 -0.4375 C 12.640625 -1.957031 13.820312 -3.550781 15.03125 -5.21875 C 16.25 -6.882812 17.457031 -8.554688 18.65625 -10.234375 C 19.851562 -11.921875 21.054688 -13.597656 22.265625 -15.265625 C 23.472656 -16.929688 24.679688 -18.53125 25.890625 -20.0625 C 25.648438 -20.457031 25.273438 -20.894531 24.765625 -21.375 C 24.265625 -21.863281 23.722656 -22.320312 23.140625 -22.75 C 22.566406 -23.175781 22.003906 -23.539062 21.453125 -23.84375 C 20.898438 -24.15625 20.46875 -24.359375 20.15625 -24.453125 C 18.9375 -22.734375 17.828125 -21.171875 16.828125 -19.765625 C 15.828125 -18.359375 14.882812 -17.03125 14 -15.78125 C 13.125 -14.53125 12.25 -13.3125 11.375 -12.125 C 10.507812 -10.945312 9.601562 -9.726562 8.65625 -8.46875 C 7.707031 -7.207031 6.671875 -5.863281 5.546875 -4.4375 C 4.421875 -3.007812 3.160156 -1.410156 1.765625 0.359375 L 1.28125 1 C 4.164062 3.195312 6.484375 4.941406 8.234375 6.234375 C 9.992188 7.523438 11.378906 8.523438 12.390625 9.234375 C 13.410156 9.941406 14.144531 10.441406 14.59375 10.734375 C 15.039062 11.023438 15.382812 11.273438 15.625 11.484375 C 15.882812 11.679688 16.09375 11.828125 16.25 11.921875 C 16.414062 12.023438 16.601562 11.992188 16.8125 11.828125 C 17.019531 11.660156 17.285156 11.351562 17.609375 10.90625 C 17.941406 10.46875 18.398438 9.796875 18.984375 8.890625 Z M 18.984375 8.890625 "/></g></g></g><g fill="#000000" fill-opacity="1"><g transform="translate(243.753198, 145.650124)"><g><path d="M 29.65625 -14.1875 C 28.738281 -15.175781 28.0625 -15.945312 27.625 -16.5 C 27.1875 -17.0625 26.804688 -17.554688 26.484375 -17.984375 C 26.347656 -18.140625 26.148438 -18.394531 25.890625 -18.75 C 25.640625 -19.101562 25.453125 -19.332031 25.328125 -19.4375 L 25.265625 -19.375 C 23.191406 -17.914062 21.171875 -16.3125 19.203125 -14.5625 C 17.242188 -12.820312 15.28125 -11.035156 13.3125 -9.203125 C 11.351562 -7.378906 9.351562 -5.554688 7.3125 -3.734375 C 5.28125 -1.921875 3.179688 -0.195312 1.015625 1.4375 C 1.285156 1.601562 1.671875 2.003906 2.171875 2.640625 C 2.671875 3.285156 3.203125 3.945312 3.765625 4.625 C 4.328125 5.3125 4.875 5.925781 5.40625 6.46875 C 5.9375 7.019531 6.378906 7.304688 6.734375 7.328125 C 8.546875 5.523438 10.421875 3.753906 12.359375 2.015625 C 14.296875 0.273438 16.265625 -1.441406 18.265625 -3.140625 C 20.273438 -4.835938 22.285156 -6.519531 24.296875 -8.1875 C 26.304688 -9.863281 28.285156 -11.550781 30.234375 -13.25 L 30.375 -13.375 Z M 29.65625 -14.1875 "/></g></g></g><g fill="#000000" fill-opacity="1"><g transform="translate(252.596688, 155.027947)"><g><path d="M 17.90625 8.375 C 17.945312 8.445312 17.988281 8.46875 18.03125 8.4375 C 18.476562 8.132812 19.035156 7.804688 19.703125 7.453125 C 20.367188 7.109375 21.03125 6.773438 21.6875 6.453125 C 22.351562 6.128906 22.945312 5.816406 23.46875 5.515625 C 24 5.210938 24.332031 4.976562 24.46875 4.8125 C 24.289062 4.53125 24.070312 4.1875 23.8125 3.78125 C 23.550781 3.375 23.296875 2.945312 23.046875 2.5 C 22.804688 2.050781 22.566406 1.59375 22.328125 1.125 C 22.097656 0.65625 21.910156 0.222656 21.765625 -0.171875 C 21.742188 -0.203125 21.742188 -0.238281 21.765625 -0.28125 C 22.054688 -0.75 22.503906 -1.175781 23.109375 -1.5625 C 23.710938 -1.957031 24.4375 -2.203125 25.28125 -2.296875 C 25.800781 -1.515625 26.335938 -0.671875 26.890625 0.234375 C 27.453125 1.140625 28.003906 2.046875 28.546875 2.953125 C 29.097656 3.867188 29.640625 4.753906 30.171875 5.609375 C 30.703125 6.472656 31.191406 7.242188 31.640625 7.921875 C 31.992188 7.765625 32.425781 7.546875 32.9375 7.265625 C 33.457031 6.984375 34 6.6875 34.5625 6.375 C 35.132812 6.070312 35.679688 5.769531 36.203125 5.46875 C 36.722656 5.164062 37.148438 4.925781 37.484375 4.75 C 37.265625 3.914062 36.925781 2.953125 36.46875 1.859375 C 36.019531 0.773438 35.488281 -0.347656 34.875 -1.515625 C 34.257812 -2.679688 33.609375 -3.851562 32.921875 -5.03125 C 32.234375 -6.207031 31.554688 -7.304688 30.890625 -8.328125 C 30.234375 -9.359375 29.632812 -10.273438 29.09375 -11.078125 C 28.5625 -11.878906 28.132812 -12.476562 27.8125 -12.875 L 27.78125 -12.859375 C 25.726562 -11.742188 23.863281 -10.734375 22.1875 -9.828125 C 20.507812 -8.921875 18.941406 -8.082031 17.484375 -7.3125 C 16.023438 -6.539062 14.644531 -5.800781 13.34375 -5.09375 C 12.039062 -4.382812 10.738281 -3.679688 9.4375 -2.984375 C 8.132812 -2.296875 6.789062 -1.578125 5.40625 -0.828125 C 4.019531 -0.078125 2.535156 0.722656 0.953125 1.578125 L 0.953125 1.640625 C 0.941406 1.765625 1.070312 2.109375 1.34375 2.671875 C 1.613281 3.234375 1.941406 3.867188 2.328125 4.578125 C 2.710938 5.285156 3.113281 5.992188 3.53125 6.703125 C 3.945312 7.410156 4.332031 8.019531 4.6875 8.53125 C 6.195312 7.726562 7.78125 6.894531 9.4375 6.03125 C 11.101562 5.175781 12.796875 4.359375 14.515625 3.578125 L 14.546875 3.625 C 15.117188 4.332031 15.675781 5.113281 16.21875 5.96875 C 16.757812 6.820312 17.320312 7.625 17.90625 8.375 Z M 17.90625 8.375 "/></g></g></g><g fill="#000000" fill-opacity="1"><g transform="translate(263.304745, 174.965835)"><g><path d="M 10.53125 18.984375 C 10.039062 17.003906 9.632812 15.066406 9.3125 13.171875 C 8.988281 11.273438 8.609375 9.363281 8.171875 7.4375 L 8.203125 7.375 C 8.890625 7.15625 9.753906 6.90625 10.796875 6.625 C 11.835938 6.351562 12.800781 6.191406 13.6875 6.140625 C 13.832031 6.265625 13.96875 6.53125 14.09375 6.9375 C 14.21875 7.34375 14.335938 7.800781 14.453125 8.3125 C 14.566406 8.820312 14.691406 9.351562 14.828125 9.90625 C 14.972656 10.457031 15.15625 10.929688 15.375 11.328125 C 16.445312 11.078125 17.488281 10.863281 18.5 10.6875 C 19.507812 10.519531 20.5 10.257812 21.46875 9.90625 L 21.515625 9.890625 C 21.335938 8.960938 21.144531 8.046875 20.9375 7.140625 C 20.738281 6.234375 20.5625 5.332031 20.40625 4.4375 L 20.4375 4.390625 C 21.1875 4.003906 22.019531 3.765625 22.9375 3.671875 C 23.851562 3.578125 24.734375 3.421875 25.578125 3.203125 L 25.625 3.234375 L 25.65625 3.359375 C 25.96875 4.304688 26.234375 5.257812 26.453125 6.21875 C 26.671875 7.1875 26.878906 8.15625 27.078125 9.125 C 27.273438 10.101562 27.503906 11.0625 27.765625 12 C 28.023438 12.945312 28.363281 13.863281 28.78125 14.75 L 28.828125 14.75 C 29.847656 14.519531 30.894531 14.316406 31.96875 14.140625 C 33.039062 13.972656 34.070312 13.707031 35.0625 13.34375 C 35.082031 13.332031 35.039062 13.03125 34.9375 12.4375 C 34.832031 11.851562 34.671875 11.078125 34.453125 10.109375 C 34.242188 9.140625 33.976562 8.023438 33.65625 6.765625 C 33.34375 5.515625 33.019531 4.21875 32.6875 2.875 C 32.363281 1.539062 32.03125 0.210938 31.6875 -1.109375 C 31.351562 -2.429688 31.023438 -3.65625 30.703125 -4.78125 C 28.160156 -4.363281 25.640625 -3.890625 23.140625 -3.359375 C 20.648438 -2.835938 18.160156 -2.28125 15.671875 -1.6875 C 13.191406 -1.09375 10.707031 -0.484375 8.21875 0.140625 C 5.738281 0.765625 3.222656 1.363281 0.671875 1.9375 C 1.066406 4.820312 1.664062 7.796875 2.46875 10.859375 C 3.269531 13.921875 3.988281 16.945312 4.625 19.9375 C 5.550781 19.976562 6.523438 19.898438 7.546875 19.703125 C 8.566406 19.503906 9.535156 19.269531 10.453125 19 Z M 10.53125 18.984375 "/></g></g></g><g clip-path="url(#60db1dec65)"><g clip-path="url(#0fbdb65d00)"><g clip-path="url(#28d4eb10dd)"><path fill="#ffffff" d="M 103.019531 195.441406 C 101.804688 196.15625 100.320312 196.214844 98.953125 196.375 C 97.226562 196.515625 95.585938 196.605469 93.859375 196.746094 C 92.0625 196.867188 92 193.984375 93.847656 193.949219 C 96.714844 193.957031 100.429688 193.226562 103.046875 194.492188 C 103.390625 194.582031 103.367188 195.238281 103.019531 195.441406 Z M 103.019531 195.441406 " fill-opacity="1" fill-rule="nonzero"/></g></g></g><g clip-path="url(#f265221e1b)"><g clip-path="url(#24cc835d74)"><g clip-path="url(#21c289a27d)"><path fill="#ffffff" d="M 96.367188 179.96875 C 96.570312 180.023438 96.5 180.296875 96.292969 180.246094 C 96.085938 180.191406 96.160156 179.914062 96.367188 179.96875 Z M 96.367188 179.96875 " fill-opacity="1" fill-rule="nonzero"/></g></g></g><g clip-path="url(#d9bd3abfdc)"><g clip-path="url(#66dc044ee4)"><g clip-path="url(#40020dfd7e)"><path fill="#ffffff" d="M 105.09375 182.890625 C 97.230469 181.738281 89.476562 179.875 81.6875 178.152344 C 79.742188 177.722656 80.527344 174.691406 82.472656 175.121094 C 90.261719 176.84375 98 178.480469 105.628906 180.824219 C 106.921875 181.230469 106.371094 183.074219 105.09375 182.890625 Z M 105.09375 182.890625 " fill-opacity="1" fill-rule="nonzero"/></g></g></g><g clip-path="url(#012b106fe2)"><g clip-path="url(#839531e34f)"><g clip-path="url(#1fa81aef1e)"><path fill="#ffffff" d="M 108.6875 170.441406 C 104.296875 168.640625 100.417969 166.019531 96.59375 163.191406 C 95.476562 162.386719 96.371094 160.632812 97.679688 161.265625 C 101.910156 163.390625 106.015625 165.703125 109.527344 168.894531 C 110.265625 169.453125 109.546875 170.808594 108.6875 170.441406 Z M 108.6875 170.441406 " fill-opacity="1" fill-rule="nonzero"/></g></g></g><g clip-path="url(#eae51501dd)"><g clip-path="url(#21e24f751f)"><g clip-path="url(#766a9e90b6)"><path fill="#ffffff" d="M 115.394531 159.015625 C 112.960938 156.769531 111.332031 153.40625 109.5625 150.59375 C 107.566406 147.503906 105.484375 144.464844 103.511719 141.304688 C 102.367188 139.46875 105.109375 137.96875 106.371094 139.621094 C 108.628906 142.558594 110.621094 145.648438 112.511719 148.859375 C 114.125 151.703125 116.328125 154.84375 116.957031 158.097656 C 117.085938 159.011719 116.113281 159.644531 115.394531 159.015625 Z M 115.394531 159.015625 " fill-opacity="1" fill-rule="nonzero"/></g></g></g><g clip-path="url(#8b9b9168e6)"><g clip-path="url(#d1474bfe0d)"><g clip-path="url(#831ce6162c)"><path fill="#ffffff" d="M 123.390625 142.335938 C 124.5 143.726562 124.621094 145.816406 124.984375 147.53125 C 125.402344 149.328125 122.632812 150.082031 122.21875 148.285156 C 121.800781 146.484375 121.074219 144.457031 121.488281 142.578125 C 121.738281 141.617188 122.894531 141.695312 123.390625 142.335938 Z M 123.390625 142.335938 " fill-opacity="1" fill-rule="nonzero"/></g></g></g><g fill="#000000" fill-opacity="1"><g transform="translate(180.756798, 161.217896)"><g><path d="M 4.5625 0.078125 L 4.5625 0.015625 C 4.5625 -0.117188 4.578125 -0.375 4.609375 -0.75 C 4.640625 -1.132812 4.664062 -1.523438 4.6875 -1.921875 C 4.71875 -2.328125 4.742188 -2.6875 4.765625 -3 C 4.785156 -3.3125 4.796875 -3.472656 4.796875 -3.484375 C 4.660156 -3.546875 4.425781 -3.59375 4.09375 -3.625 C 3.769531 -3.664062 3.414062 -3.6875 3.03125 -3.6875 C 2.65625 -3.695312 2.28125 -3.6875 1.90625 -3.65625 C 1.539062 -3.625 1.253906 -3.570312 1.046875 -3.5 C 1.046875 -3.351562 1.035156 -3.128906 1.015625 -2.828125 C 1.003906 -2.535156 0.988281 -2.21875 0.96875 -1.875 C 0.957031 -1.53125 0.953125 -1.1875 0.953125 -0.84375 C 0.953125 -0.507812 0.972656 -0.234375 1.015625 -0.015625 L 1.109375 -0.015625 L 4.5 0.078125 Z M 4.5625 0.078125 "/></g></g></g><g fill="#000000" fill-opacity="1"><g transform="translate(187.784473, 161.358797)"><g><path d="M 9.40625 -19.796875 C 8.507812 -19.929688 7.832031 -20.050781 7.375 -20.15625 C 6.914062 -20.269531 6.515625 -20.367188 6.171875 -20.453125 C 6.035156 -20.472656 5.828125 -20.519531 5.546875 -20.59375 C 5.265625 -20.664062 5.066406 -20.703125 4.953125 -20.703125 L 4.953125 -20.65625 C 4.492188 -19.019531 4.117188 -17.335938 3.828125 -15.609375 C 3.546875 -13.878906 3.273438 -12.128906 3.015625 -10.359375 C 2.765625 -8.597656 2.5 -6.816406 2.21875 -5.015625 C 1.9375 -3.210938 1.578125 -1.429688 1.140625 0.328125 C 1.347656 0.296875 1.710938 0.335938 2.234375 0.453125 C 2.765625 0.578125 3.316406 0.695312 3.890625 0.8125 C 4.472656 0.9375 5.015625 1.023438 5.515625 1.078125 C 6.023438 1.140625 6.375 1.097656 6.5625 0.953125 C 6.75 -0.734375 6.976562 -2.4375 7.25 -4.15625 C 7.519531 -5.875 7.816406 -7.59375 8.140625 -9.3125 C 8.472656 -11.03125 8.804688 -12.738281 9.140625 -14.4375 C 9.484375 -16.144531 9.796875 -17.847656 10.078125 -19.546875 L 10.109375 -19.671875 Z M 9.40625 -19.796875 "/></g></g></g><g fill="#000000" fill-opacity="1"><g transform="translate(196.187972, 162.457796)"><g><path d="M 11.6875 5.015625 C 12 5.148438 12.226562 5.222656 12.375 5.234375 C 12.519531 5.253906 12.613281 5.257812 12.65625 5.25 L 12.890625 4.703125 C 13.046875 4.328125 13.195312 3.953125 13.34375 3.578125 C 13.488281 3.210938 13.640625 2.847656 13.796875 2.484375 C 14.003906 1.960938 14.210938 1.453125 14.421875 0.953125 C 14.640625 0.460938 14.859375 -0.0507812 15.078125 -0.59375 C 15.410156 -1.394531 15.738281 -2.191406 16.0625 -2.984375 C 16.394531 -3.773438 16.71875 -4.554688 17.03125 -5.328125 L 20.734375 -14.265625 C 20.234375 -14.597656 19.644531 -14.90625 18.96875 -15.1875 C 18.257812 -15.476562 17.570312 -15.703125 16.90625 -15.859375 C 16.695312 -15.398438 16.503906 -14.972656 16.328125 -14.578125 C 16.160156 -14.179688 16 -13.789062 15.84375 -13.40625 C 15.5625 -12.738281 15.296875 -12.078125 15.046875 -11.421875 C 14.804688 -10.773438 14.535156 -10.082031 14.234375 -9.34375 C 14.097656 -9.039062 13.945312 -8.726562 13.78125 -8.40625 C 13.613281 -8.09375 13.488281 -7.925781 13.40625 -7.90625 C 13.382812 -7.914062 13.363281 -8.050781 13.34375 -8.3125 C 13.320312 -8.570312 13.296875 -8.882812 13.265625 -9.25 C 13.242188 -9.625 13.21875 -10.035156 13.1875 -10.484375 C 13.164062 -10.941406 13.140625 -11.375 13.109375 -11.78125 C 13.078125 -12.195312 13.050781 -12.5625 13.03125 -12.875 C 13.019531 -13.1875 13.015625 -13.394531 13.015625 -13.5 C 13.003906 -13.96875 12.992188 -14.347656 12.984375 -14.640625 C 12.972656 -14.941406 12.953125 -15.210938 12.921875 -15.453125 C 12.898438 -15.703125 12.878906 -15.957031 12.859375 -16.21875 C 12.847656 -16.488281 12.847656 -16.8125 12.859375 -17.1875 C 12.867188 -17.226562 12.785156 -17.304688 12.609375 -17.421875 C 12.429688 -17.546875 12.21875 -17.675781 11.96875 -17.8125 C 11.71875 -17.945312 11.460938 -18.070312 11.203125 -18.1875 C 10.953125 -18.3125 10.773438 -18.394531 10.671875 -18.4375 C 10.453125 -18.53125 10.234375 -18.609375 10.015625 -18.671875 C 9.796875 -18.742188 9.582031 -18.800781 9.375 -18.84375 C 8.800781 -17.695312 8.234375 -16.507812 7.671875 -15.28125 C 7.117188 -14.050781 6.578125 -12.796875 6.046875 -11.515625 C 5.328125 -9.773438 4.648438 -8.109375 4.015625 -6.515625 C 3.390625 -4.921875 2.710938 -3.242188 1.984375 -1.484375 L 1.1875 0.453125 C 1.601562 0.628906 2.023438 0.835938 2.453125 1.078125 C 2.878906 1.328125 3.316406 1.546875 3.765625 1.734375 C 3.960938 1.816406 4.164062 1.890625 4.375 1.953125 C 4.59375 2.023438 4.8125 2.070312 5.03125 2.09375 C 5.15625 1.769531 5.296875 1.410156 5.453125 1.015625 C 5.617188 0.617188 5.789062 0.207031 5.96875 -0.21875 C 6.289062 -1 6.625 -1.800781 6.96875 -2.625 C 7.320312 -3.445312 7.648438 -4.195312 7.953125 -4.875 C 8.265625 -5.5625 8.523438 -6.117188 8.734375 -6.546875 C 8.953125 -6.972656 9.066406 -7.1875 9.078125 -7.1875 C 9.117188 -7.164062 9.132812 -7.050781 9.125 -6.84375 C 9.113281 -6.644531 9.109375 -6.425781 9.109375 -6.1875 L 9.03125 -5.25 C 8.96875 -3.894531 8.96875 -2.445312 9.03125 -0.90625 C 9.09375 0.625 9.144531 2.195312 9.1875 3.8125 C 9.5625 3.96875 9.976562 4.164062 10.4375 4.40625 C 10.90625 4.65625 11.320312 4.859375 11.6875 5.015625 Z M 11.6875 5.015625 "/></g></g></g><g fill="#000000" fill-opacity="1"><g transform="translate(210.074048, 168.25844)"><g><path d="M 14.65625 -9.125 C 14.875 -9.15625 15.117188 -9.101562 15.390625 -8.96875 C 15.660156 -8.832031 15.90625 -8.691406 16.125 -8.546875 C 16.59375 -8.210938 16.847656 -7.859375 16.890625 -7.484375 C 16.941406 -7.117188 16.878906 -6.742188 16.703125 -6.359375 C 16.523438 -5.984375 16.289062 -5.601562 16 -5.21875 C 15.707031 -4.832031 15.46875 -4.472656 15.28125 -4.140625 C 15.800781 -3.566406 16.316406 -3.035156 16.828125 -2.546875 C 17.347656 -2.066406 17.953125 -1.65625 18.640625 -1.3125 C 19.460938 -1.832031 20.113281 -2.460938 20.59375 -3.203125 C 21.082031 -3.941406 21.410156 -4.722656 21.578125 -5.546875 C 21.753906 -6.367188 21.769531 -7.207031 21.625 -8.0625 C 21.488281 -8.914062 21.21875 -9.722656 20.8125 -10.484375 C 20.414062 -11.242188 19.878906 -11.929688 19.203125 -12.546875 C 18.535156 -13.160156 17.75 -13.632812 16.84375 -13.96875 C 16.570312 -14.082031 16.300781 -14.175781 16.03125 -14.25 C 15.757812 -14.320312 15.492188 -14.367188 15.234375 -14.390625 C 14.722656 -14.347656 14.222656 -14.238281 13.734375 -14.0625 C 13.253906 -13.894531 12.78125 -13.664062 12.3125 -13.375 C 12.03125 -13.207031 11.753906 -13.007812 11.484375 -12.78125 C 11.210938 -12.550781 10.984375 -12.289062 10.796875 -12 C 9.773438 -10.75 8.878906 -9.640625 8.109375 -8.671875 C 7.335938 -7.710938 6.648438 -6.851562 6.046875 -6.09375 C 5.453125 -5.332031 4.921875 -4.640625 4.453125 -4.015625 C 3.984375 -3.390625 3.539062 -2.78125 3.125 -2.1875 C 2.664062 -1.488281 2.4375 -0.78125 2.4375 -0.0625 C 2.445312 0.65625 2.613281 1.335938 2.9375 1.984375 C 3.257812 2.640625 3.6875 3.238281 4.21875 3.78125 C 4.757812 4.332031 5.34375 4.789062 5.96875 5.15625 C 6.84375 5.832031 7.785156 6.234375 8.796875 6.359375 C 9.816406 6.484375 10.789062 6.390625 11.71875 6.078125 C 12.644531 5.773438 13.492188 5.269531 14.265625 4.5625 C 15.035156 3.863281 15.609375 3 15.984375 1.96875 C 15.804688 1.726562 15.585938 1.492188 15.328125 1.265625 C 15.066406 1.035156 14.796875 0.804688 14.515625 0.578125 C 14.234375 0.359375 13.945312 0.148438 13.65625 -0.046875 C 13.375 -0.253906 13.140625 -0.460938 12.953125 -0.671875 C 12.554688 -0.335938 12.210938 0.0351562 11.921875 0.453125 C 11.628906 0.878906 11.25 1.203125 10.78125 1.421875 C 10.382812 1.609375 9.976562 1.644531 9.5625 1.53125 C 9.15625 1.425781 8.796875 1.21875 8.484375 0.90625 C 8.117188 0.425781 8.007812 -0.101562 8.15625 -0.6875 C 8.300781 -1.28125 8.53125 -1.820312 8.84375 -2.3125 C 9.25 -2.90625 9.742188 -3.570312 10.328125 -4.3125 C 10.921875 -5.050781 11.492188 -5.757812 12.046875 -6.4375 C 12.609375 -7.113281 13.101562 -7.691406 13.53125 -8.171875 C 13.957031 -8.660156 14.203125 -8.914062 14.265625 -8.9375 C 14.316406 -8.945312 14.378906 -8.976562 14.453125 -9.03125 C 14.523438 -9.09375 14.59375 -9.125 14.65625 -9.125 Z M 14.65625 -9.125 "/></g></g></g></svg>