<svg xmlns="http://www.w3.org/2000/svg" xmlns:xlink="http://www.w3.org/1999/xlink" width="500" zoomAndPan="magnify" viewBox="0 0 375 374.999991" height="500" preserveAspectRatio="xMidYMid meet" version="1.0"><defs><g/><clipPath id="6b310b202a"><path d="M 63.609375 157.289062 L 124.03125 157.289062 L 124.03125 217.710938 L 63.609375 217.710938 Z M 63.609375 157.289062 " clip-rule="nonzero"/></clipPath><clipPath id="e437f293b4"><path d="M 93.820312 157.289062 C 77.132812 157.289062 63.609375 170.816406 63.609375 187.5 C 63.609375 204.183594 77.132812 217.710938 93.820312 217.710938 C 110.503906 217.710938 124.03125 204.183594 124.03125 187.5 C 124.03125 170.816406 110.503906 157.289062 93.820312 157.289062 Z M 93.820312 157.289062 " clip-rule="nonzero"/></clipPath><clipPath id="3a00735cbc"><path d="M 69.441406 163.121094 L 118.199219 163.121094 L 118.199219 211.878906 L 69.441406 211.878906 Z M 69.441406 163.121094 " clip-rule="nonzero"/></clipPath><clipPath id="bcd373f5fd"><path d="M 93.820312 163.121094 C 80.355469 163.121094 69.441406 174.035156 69.441406 187.5 C 69.441406 200.964844 80.355469 211.878906 93.820312 211.878906 C 107.285156 211.878906 118.199219 200.964844 118.199219 187.5 C 118.199219 174.035156 107.285156 163.121094 93.820312 163.121094 Z M 93.820312 163.121094 " clip-rule="nonzero"/></clipPath><clipPath id="0ed3ba6da5"><path d="M 69 170.835938 L 116.445312 170.835938 L 116.445312 211.828125 L 69 211.828125 Z M 69 170.835938 " clip-rule="nonzero"/></clipPath></defs><g clip-path="url(#6b310b202a)"><g clip-path="url(#e437f293b4)"><path fill="#d8d6d3" d="M 63.609375 157.289062 L 124.03125 157.289062 L 124.03125 217.710938 L 63.609375 217.710938 Z M 63.609375 157.289062 " fill-opacity="1" fill-rule="nonzero"/></g></g><g clip-path="url(#3a00735cbc)"><g clip-path="url(#bcd373f5fd)"><path fill="#ffffff" d="M 69.441406 163.121094 L 118.199219 163.121094 L 118.199219 211.878906 L 69.441406 211.878906 Z M 69.441406 163.121094 " fill-opacity="1" fill-rule="nonzero"/></g></g><g clip-path="url(#0ed3ba6da5)"><path fill="#000000" d="M 116.304688 192.089844 C 116.316406 195.125 115.472656 198.09375 114.113281 200.777344 C 109.804688 207.457031 102.296875 211.878906 93.757812 211.878906 C 89.09375 211.878906 84.734375 210.558594 81.039062 208.269531 C 79.722656 206.769531 78.628906 205.089844 77.824219 203.289062 C 76.410156 202.480469 74.980469 201.660156 73.796875 200.542969 C 73.195312 199.976562 72.664062 199.335938 72.183594 198.664062 C 72.121094 198.574219 72.058594 198.484375 71.996094 198.394531 C 70.210938 195.796875 69.109375 192.703125 69.035156 189.550781 C 68.996094 187.960938 69.226562 186.355469 69.710938 184.863281 C 70.179688 183.398438 70.890625 182.039062 71.820312 180.894531 C 72.917969 179.382812 74.703125 178.457031 75.730469 176.898438 C 76.242188 176.121094 76.546875 175.210938 76.601562 174.28125 C 76.640625 173.601562 76.550781 172.921875 76.613281 172.242188 C 76.65625 171.773438 76.8125 171.261719 77.226562 171.03125 C 77.585938 170.835938 78.050781 170.921875 78.382812 171.160156 C 78.714844 171.398438 78.929688 171.765625 79.089844 172.144531 C 79.792969 173.835938 79.4375 175.816406 78.605469 177.453125 C 77.777344 179.089844 76.523438 180.460938 75.335938 181.863281 C 74.152344 183.265625 73.007812 184.757812 72.460938 186.507812 C 71.816406 188.570312 72.085938 190.863281 73.007812 192.816406 C 73.929688 194.769531 75.480469 196.390625 77.179688 197.449219 C 77.660156 196.050781 77.378906 194.515625 76.976562 193.09375 C 76.578125 191.671875 76.058594 190.253906 76.070312 188.777344 C 76.074219 188.050781 76.207031 187.332031 76.339844 186.621094 C 76.460938 185.960938 76.585938 185.292969 76.863281 184.683594 C 77.023438 184.320312 77.289062 183.945312 77.683594 183.898438 C 77.96875 183.867188 78.25 184.023438 78.429688 184.242188 C 78.609375 184.464844 78.703125 184.746094 78.765625 185.023438 C 79.019531 186.148438 78.859375 187.320312 78.878906 188.472656 C 78.890625 189.082031 78.96875 189.734375 79.363281 190.199219 C 79.605469 190.484375 79.941406 190.671875 80.273438 190.84375 C 80.71875 191.070312 81.171875 191.28125 81.65625 191.472656 C 81.546875 190.167969 81.5 188.855469 81.515625 187.546875 C 81.519531 187.214844 81.53125 186.875 81.644531 186.5625 C 81.761719 186.25 82.007812 185.964844 82.332031 185.890625 C 82.691406 185.804688 83.078125 186 83.308594 186.292969 C 83.539062 186.585938 83.644531 186.953125 83.714844 187.320312 C 83.949219 188.492188 83.914062 189.75 84.46875 190.808594 C 84.921875 191.675781 85.71875 192.304688 86.359375 193.046875 C 87.085938 193.886719 87.617188 194.890625 87.929688 195.980469 C 91.617188 196.5625 95.457031 196.132812 98.867188 194.742188 C 98.125 193.023438 96.628906 191.746094 95.050781 190.746094 C 94.804688 190.589844 94.527344 190.378906 94.558594 190.09375 C 94.59375 189.765625 94.996094 189.636719 95.320312 189.613281 C 96.984375 189.496094 98.617188 190.210938 99.914062 191.253906 C 100.441406 191.679688 100.925781 192.15625 101.484375 192.535156 C 102.039062 192.917969 102.699219 193.195312 103.351562 193.132812 C 104.113281 192.851562 104.523438 192.023438 104.699219 191.230469 C 104.871094 190.441406 104.890625 189.605469 105.226562 188.867188 C 105.542969 188.171875 106.105469 187.628906 106.605469 187.054688 C 107.105469 186.480469 107.574219 185.8125 107.621094 185.050781 C 107.640625 184.71875 107.582031 184.375 107.609375 184.050781 C 107.625 183.871094 107.84375 183.785156 107.976562 183.910156 C 108.621094 184.492188 109.183594 185.175781 109.726562 185.921875 C 111.195312 185.898438 112.671875 186.21875 113.988281 186.792969 C 114.3125 186.160156 114.632812 185.527344 114.953125 184.890625 C 115.03125 184.738281 115.164062 184.5625 115.328125 184.613281 C 115.390625 184.632812 115.4375 184.6875 115.476562 184.742188 C 116.304688 185.816406 116.171875 187.3125 116.171875 188.667969 C 116.171875 189.808594 116.296875 190.949219 116.304688 192.089844 " fill-opacity="1" fill-rule="nonzero"/></g><path fill="#d8d6d3" d="M 106.957031 189.015625 C 106.957031 188.742188 107.175781 188.523438 107.449219 188.523438 C 107.722656 188.523438 107.945312 188.742188 107.945312 189.015625 C 107.945312 189.289062 107.722656 189.511719 107.449219 189.511719 C 107.175781 189.511719 106.957031 189.289062 106.957031 189.015625 " fill-opacity="1" fill-rule="nonzero"/><path fill="#d8d6d3" d="M 112.007812 190.214844 C 112.007812 189.941406 112.230469 189.71875 112.503906 189.71875 C 112.773438 189.71875 112.996094 189.941406 112.996094 190.214844 C 112.996094 190.488281 112.773438 190.710938 112.503906 190.710938 C 112.230469 190.710938 112.007812 190.488281 112.007812 190.214844 " fill-opacity="1" fill-rule="nonzero"/><path fill="#60697d" d="M 108.679688 200.382812 C 108.597656 200.261719 108.523438 200.140625 108.449219 200.019531 C 108.164062 199.558594 107.878906 199.089844 107.554688 198.65625 C 107.007812 197.964844 106.429688 197.292969 105.746094 196.738281 C 104.621094 195.835938 103.269531 195.207031 101.847656 194.953125 C 100.507812 194.730469 99 194.65625 97.757812 195.289062 C 97.34375 195.535156 96.835938 196.164062 97.183594 196.636719 C 97.574219 197.148438 98.449219 197.277344 99.035156 197.472656 C 99.910156 197.734375 100.609375 198.007812 101.371094 198.507812 C 101.949219 198.875 102.375 199.191406 102.878906 199.675781 C 103.484375 200.332031 103.953125 201.035156 104.324219 201.910156 C 104.488281 202.296875 104.621094 202.523438 104.734375 202.910156 C 104.777344 203.066406 105.027344 203.011719 104.984375 202.839844 C 104.90625 202.566406 104.78125 202.304688 104.667969 202.046875 C 104.546875 201.777344 104.4375 201.503906 104.300781 201.242188 C 103.996094 200.636719 103.59375 200.089844 103.148438 199.582031 C 102.738281 199.152344 102.257812 198.789062 101.769531 198.457031 C 101.28125 198.125 100.769531 197.828125 100.21875 197.609375 C 99.75 197.414062 99.269531 197.265625 98.78125 197.128906 C 98.140625 196.953125 97.355469 196.703125 97.328125 196.3125 C 97.320312 196.011719 97.652344 195.597656 98.0625 195.429688 C 98.796875 195.105469 99.777344 195.007812 100.703125 195.074219 C 101.855469 195.132812 103.085938 195.464844 104.101562 195.984375 C 104.851562 196.371094 105.445312 196.78125 106.023438 197.328125 C 106.625 197.917969 107.164062 198.53125 107.59375 199.160156 C 107.839844 199.523438 108.066406 199.898438 108.296875 200.269531 C 108.382812 200.410156 108.476562 200.550781 108.570312 200.6875 C 108.589844 200.714844 108.617188 200.738281 108.648438 200.746094 C 108.726562 200.769531 108.816406 200.707031 108.8125 200.621094 C 108.804688 200.527344 108.71875 200.460938 108.679688 200.382812 " fill-opacity="1" fill-rule="nonzero"/><path fill="#60697d" d="M 86.863281 199.566406 C 86.609375 197.722656 86.019531 195.890625 84.933594 194.359375 C 84.285156 193.4375 83.511719 192.597656 82.605469 191.925781 C 82.398438 191.769531 82.179688 191.632812 81.957031 191.5 C 81.886719 191.46875 81.828125 191.40625 81.753906 191.390625 C 81.617188 191.371094 81.546875 191.5625 81.667969 191.632812 C 82.550781 192.136719 83.246094 192.730469 83.941406 193.515625 C 84.503906 194.160156 85.019531 194.871094 85.433594 195.699219 C 85.835938 196.46875 86.097656 197.238281 86.324219 198.132812 C 86.574219 199.160156 86.703125 200.035156 86.703125 201.089844 C 86.714844 201.964844 86.664062 202.914062 86.535156 203.671875 C 86.488281 203.984375 86.4375 204.296875 86.367188 204.609375 C 86.339844 204.71875 86.3125 204.832031 86.289062 204.941406 C 86.28125 204.976562 86.285156 205.011719 86.304688 205.042969 C 86.355469 205.136719 86.515625 205.121094 86.542969 205.011719 C 86.585938 204.804688 86.636719 204.597656 86.675781 204.390625 C 86.796875 203.75 86.886719 203.101562 86.933594 202.449219 C 86.976562 201.488281 86.996094 200.519531 86.863281 199.566406 " fill-opacity="1" fill-rule="nonzero"/><path fill="#60697d" d="M 110.214844 191.839844 C 110.195312 191.777344 110.125 191.8125 110.082031 191.816406 C 110.050781 191.824219 109.957031 191.832031 109.886719 191.828125 C 109.734375 191.816406 109.667969 191.816406 109.542969 191.71875 C 109.476562 191.664062 109.375 191.554688 109.363281 191.429688 C 109.339844 191.300781 109.359375 191.097656 109.390625 190.945312 C 109.394531 190.921875 109.402344 190.898438 109.40625 190.875 C 109.421875 190.828125 109.433594 190.777344 109.453125 190.730469 C 109.457031 190.703125 109.445312 190.683594 109.429688 190.671875 C 109.402344 190.644531 109.347656 190.652344 109.339844 190.695312 C 109.332031 190.742188 109.320312 190.789062 109.308594 190.839844 C 109.257812 191.035156 109.21875 191.238281 109.128906 191.390625 C 108.988281 191.632812 108.746094 191.667969 108.5 191.5 C 108.460938 191.472656 108.4375 191.453125 108.394531 191.402344 C 108.378906 191.378906 108.367188 191.351562 108.339844 191.34375 C 108.265625 191.332031 108.257812 191.410156 108.304688 191.453125 C 108.449219 191.640625 108.722656 191.761719 108.957031 191.679688 C 109.09375 191.625 109.1875 191.503906 109.253906 191.375 C 109.261719 191.472656 109.285156 191.574219 109.34375 191.65625 C 109.417969 191.757812 109.519531 191.847656 109.636719 191.894531 C 109.738281 191.929688 109.847656 191.929688 109.953125 191.933594 C 110.015625 191.929688 110.078125 191.921875 110.136719 191.910156 C 110.179688 191.910156 110.230469 191.890625 110.214844 191.839844 " fill-opacity="1" fill-rule="nonzero"/><path fill="#d8d6d3" d="M 109.195312 190.675781 C 109.246094 190.648438 109.308594 190.699219 109.285156 190.75 C 109.285156 190.753906 109.28125 190.757812 109.277344 190.765625 C 109.265625 190.777344 109.253906 190.789062 109.242188 190.800781 C 109.210938 190.847656 109.242188 190.90625 109.269531 190.953125 C 109.28125 190.972656 109.292969 190.992188 109.3125 191.003906 C 109.371094 191.046875 109.449219 191.003906 109.507812 190.964844 C 109.546875 190.9375 109.59375 190.894531 109.570312 190.851562 C 109.566406 190.835938 109.554688 190.828125 109.550781 190.816406 C 109.535156 190.796875 109.53125 190.765625 109.542969 190.742188 C 109.558594 190.71875 109.59375 190.710938 109.613281 190.730469 C 109.628906 190.742188 109.628906 190.769531 109.640625 190.789062 C 109.65625 190.808594 109.679688 190.816406 109.703125 190.820312 C 109.777344 190.828125 109.855469 190.769531 109.871094 190.699219 C 109.882812 190.636719 109.855469 190.570312 109.8125 190.527344 C 109.769531 190.480469 109.714844 190.453125 109.65625 190.429688 C 109.578125 190.398438 109.5 190.378906 109.417969 190.371094 C 109.347656 190.363281 109.277344 190.359375 109.210938 190.382812 C 109.144531 190.40625 109.085938 190.453125 109.0625 190.519531 C 109.039062 190.585938 109.0625 190.667969 109.125 190.699219 C 109.140625 190.710938 109.167969 190.691406 109.195312 190.675781 " fill-opacity="1" fill-rule="nonzero"/><path fill="#000000" d="M 112.492188 189.953125 C 112.183594 189.960938 112.183594 190.414062 112.492188 190.421875 C 112.800781 190.414062 112.800781 189.960938 112.492188 189.953125 " fill-opacity="1" fill-rule="nonzero"/><path fill="#000000" d="M 107.46875 188.789062 C 107.160156 188.796875 107.160156 189.25 107.46875 189.257812 C 107.777344 189.25 107.773438 188.800781 107.46875 188.789062 " fill-opacity="1" fill-rule="nonzero"/><g fill="#000000" fill-opacity="1"><g transform="translate(129.173038, 202.499987)"><g><path d="M 19.078125 0.21875 C 19.585938 0.21875 19.945312 0.1875 20.15625 0.125 C 20.363281 0.0703125 20.5 0.03125 20.5625 0 L 20.5625 -0.90625 C 20.5625 -1.5 20.550781 -2.09375 20.53125 -2.6875 C 20.519531 -3.289062 20.515625 -3.894531 20.515625 -4.5 C 20.515625 -5.34375 20.519531 -6.164062 20.53125 -6.96875 C 20.550781 -7.78125 20.5625 -8.625 20.5625 -9.5 C 20.5625 -10.789062 20.5625 -12.078125 20.5625 -13.359375 C 20.5625 -14.648438 20.546875 -15.925781 20.515625 -17.1875 L 20.515625 -31.6875 C 19.648438 -31.863281 18.660156 -31.953125 17.546875 -31.953125 C 16.410156 -31.953125 15.332031 -31.863281 14.3125 -31.6875 C 14.28125 -30.9375 14.253906 -30.238281 14.234375 -29.59375 C 14.222656 -28.945312 14.21875 -28.304688 14.21875 -27.671875 C 14.21875 -26.597656 14.238281 -25.539062 14.28125 -24.5 C 14.332031 -23.46875 14.359375 -22.351562 14.359375 -21.15625 C 14.359375 -20.644531 14.328125 -20.117188 14.265625 -19.578125 C 14.203125 -19.035156 14.128906 -18.734375 14.046875 -18.671875 C 14.015625 -18.671875 13.90625 -18.84375 13.71875 -19.1875 C 13.539062 -19.53125 13.320312 -19.945312 13.0625 -20.4375 C 12.8125 -20.9375 12.535156 -21.492188 12.234375 -22.109375 C 11.941406 -22.734375 11.660156 -23.320312 11.390625 -23.875 C 11.117188 -24.425781 10.875 -24.910156 10.65625 -25.328125 C 10.445312 -25.753906 10.316406 -26.039062 10.265625 -26.1875 C 9.992188 -26.820312 9.757812 -27.335938 9.5625 -27.734375 C 9.363281 -28.140625 9.179688 -28.507812 9.015625 -28.84375 C 8.859375 -29.175781 8.6875 -29.519531 8.5 -29.875 C 8.320312 -30.238281 8.128906 -30.691406 7.921875 -31.234375 C 7.921875 -31.285156 7.757812 -31.34375 7.4375 -31.40625 C 7.125 -31.46875 6.757812 -31.519531 6.34375 -31.5625 C 5.925781 -31.613281 5.503906 -31.644531 5.078125 -31.65625 C 4.660156 -31.675781 4.363281 -31.6875 4.1875 -31.6875 C 3.820312 -31.6875 3.46875 -31.671875 3.125 -31.640625 C 2.78125 -31.609375 2.457031 -31.5625 2.15625 -31.5 C 2.007812 -29.582031 1.90625 -27.609375 1.84375 -25.578125 C 1.78125 -23.554688 1.75 -21.507812 1.75 -19.4375 C 1.75 -16.613281 1.769531 -13.910156 1.8125 -11.328125 C 1.863281 -8.753906 1.890625 -6.039062 1.890625 -3.1875 L 1.890625 -0.046875 C 2.578125 -0.046875 3.285156 -0.00390625 4.015625 0.078125 C 4.753906 0.171875 5.484375 0.21875 6.203125 0.21875 C 6.535156 0.21875 6.863281 0.203125 7.1875 0.171875 C 7.519531 0.148438 7.851562 0.09375 8.1875 0 C 8.15625 -0.507812 8.140625 -1.085938 8.140625 -1.734375 C 8.140625 -2.378906 8.140625 -3.046875 8.140625 -3.734375 C 8.140625 -4.992188 8.144531 -6.296875 8.15625 -7.640625 C 8.175781 -8.992188 8.203125 -10.222656 8.234375 -11.328125 C 8.265625 -12.441406 8.300781 -13.359375 8.34375 -14.078125 C 8.394531 -14.804688 8.429688 -15.171875 8.453125 -15.171875 C 8.515625 -15.171875 8.597656 -15.023438 8.703125 -14.734375 C 8.804688 -14.453125 8.921875 -14.144531 9.046875 -13.8125 L 9.5 -12.46875 C 10.1875 -10.539062 11.015625 -8.535156 11.984375 -6.453125 C 12.960938 -4.367188 13.945312 -2.21875 14.9375 0 C 15.539062 0 16.234375 0.0351562 17.015625 0.109375 C 17.796875 0.179688 18.484375 0.21875 19.078125 0.21875 Z M 19.078125 0.21875 "/></g></g></g><g fill="#000000" fill-opacity="1"><g transform="translate(151.583017, 202.499987)"><g><path d="M 20.828125 -6.125 C 18.796875 -6.0625 16.816406 -6.082031 14.890625 -6.1875 C 12.972656 -6.289062 11.023438 -6.34375 9.046875 -6.34375 L 9 -6.390625 C 8.9375 -7.109375 8.882812 -8.003906 8.84375 -9.078125 C 8.800781 -10.160156 8.851562 -11.140625 9 -12.015625 C 9.144531 -12.128906 9.425781 -12.203125 9.84375 -12.234375 C 10.269531 -12.265625 10.742188 -12.28125 11.265625 -12.28125 C 11.796875 -12.28125 12.34375 -12.285156 12.90625 -12.296875 C 13.476562 -12.316406 13.988281 -12.390625 14.4375 -12.515625 C 14.414062 -13.617188 14.429688 -14.679688 14.484375 -15.703125 C 14.546875 -16.722656 14.503906 -17.742188 14.359375 -18.765625 L 14.359375 -18.8125 C 13.421875 -18.84375 12.488281 -18.859375 11.5625 -18.859375 C 10.632812 -18.859375 9.71875 -18.882812 8.8125 -18.9375 L 8.78125 -18.984375 C 8.5625 -19.796875 8.503906 -20.660156 8.609375 -21.578125 C 8.722656 -22.492188 8.765625 -23.382812 8.734375 -24.25 L 8.78125 -24.296875 L 8.90625 -24.296875 C 9.894531 -24.390625 10.882812 -24.4375 11.875 -24.4375 C 12.863281 -24.4375 13.851562 -24.425781 14.84375 -24.40625 C 15.832031 -24.394531 16.816406 -24.410156 17.796875 -24.453125 C 18.773438 -24.503906 19.742188 -24.632812 20.703125 -24.84375 L 20.703125 -24.890625 C 20.703125 -25.929688 20.738281 -26.992188 20.8125 -28.078125 C 20.882812 -29.160156 20.847656 -30.226562 20.703125 -31.28125 C 20.703125 -31.300781 20.398438 -31.328125 19.796875 -31.359375 C 19.203125 -31.390625 18.410156 -31.40625 17.421875 -31.40625 C 16.429688 -31.40625 15.289062 -31.390625 14 -31.359375 C 12.707031 -31.328125 11.367188 -31.296875 9.984375 -31.265625 C 8.609375 -31.242188 7.238281 -31.207031 5.875 -31.15625 C 4.507812 -31.113281 3.238281 -31.0625 2.0625 -31 C 1.914062 -28.425781 1.828125 -25.863281 1.796875 -23.3125 C 1.765625 -20.757812 1.765625 -18.207031 1.796875 -15.65625 C 1.828125 -13.101562 1.875 -10.546875 1.9375 -7.984375 C 2 -5.421875 2.03125 -2.832031 2.03125 -0.21875 C 4.9375 0.0195312 7.972656 0.0859375 11.140625 -0.015625 C 14.304688 -0.128906 17.414062 -0.171875 20.46875 -0.140625 C 20.707031 -1.035156 20.84375 -2 20.875 -3.03125 C 20.90625 -4.070312 20.890625 -5.070312 20.828125 -6.03125 Z M 20.828125 -6.125 "/></g></g></g><g fill="#000000" fill-opacity="1"><g transform="translate(173.227994, 202.499987)"><g><path d="M 13.140625 -16.15625 C 13.679688 -17.414062 14.3125 -18.675781 15.03125 -19.9375 C 15.75 -21.195312 16.472656 -22.457031 17.203125 -23.71875 C 17.941406 -24.976562 18.632812 -26.238281 19.28125 -27.5 C 19.925781 -28.757812 20.429688 -30.019531 20.796875 -31.28125 C 19.828125 -31.425781 18.800781 -31.46875 17.71875 -31.40625 C 16.644531 -31.34375 15.628906 -31.34375 14.671875 -31.40625 C 14.035156 -30.507812 13.46875 -29.609375 12.96875 -28.703125 C 12.476562 -27.804688 12 -26.90625 11.53125 -26 C 11.070312 -25.101562 10.585938 -24.21875 10.078125 -23.34375 C 9.566406 -22.476562 9 -21.640625 8.375 -20.828125 C 8.3125 -20.773438 8.253906 -20.707031 8.203125 -20.625 C 8.160156 -20.550781 8.140625 -20.53125 8.140625 -20.5625 C 8.085938 -22.269531 8.070312 -24.066406 8.09375 -25.953125 C 8.125 -27.847656 8.113281 -29.648438 8.0625 -31.359375 C 7.09375 -31.359375 6.09375 -31.378906 5.0625 -31.421875 C 4.03125 -31.472656 3.019531 -31.484375 2.03125 -31.453125 C 2.050781 -26.203125 1.976562 -20.972656 1.8125 -15.765625 C 1.65625 -10.566406 1.695312 -5.382812 1.9375 -0.21875 C 2.320312 -0.132812 2.804688 -0.0625 3.390625 0 C 3.984375 0.0625 4.59375 0.09375 5.21875 0.09375 C 5.851562 0.09375 6.453125 0.0664062 7.015625 0.015625 C 7.585938 -0.0234375 8.082031 -0.101562 8.5 -0.21875 C 8.5 -1.0625 8.488281 -1.976562 8.46875 -2.96875 C 8.457031 -3.957031 8.4375 -4.960938 8.40625 -5.984375 C 8.382812 -7.003906 8.363281 -8.015625 8.34375 -9.015625 C 8.332031 -10.023438 8.34375 -10.960938 8.375 -11.828125 C 8.851562 -10.992188 9.332031 -10.050781 9.8125 -9 C 10.289062 -7.945312 10.773438 -6.878906 11.265625 -5.796875 C 11.765625 -4.722656 12.285156 -3.679688 12.828125 -2.671875 C 13.367188 -1.671875 13.953125 -0.8125 14.578125 -0.09375 C 15.535156 -0.0625 16.578125 -0.015625 17.703125 0.046875 C 18.828125 0.109375 19.867188 0.03125 20.828125 -0.1875 Z M 13.140625 -16.15625 "/></g></g></g><g fill="#000000" fill-opacity="1"><g transform="translate(193.882976, 202.499987)"><g><path d="M 19.671875 -26.640625 C 19.304688 -27.691406 18.6875 -28.609375 17.8125 -29.390625 C 16.945312 -30.046875 15.96875 -30.546875 14.875 -30.890625 C 13.78125 -31.234375 12.65625 -31.4375 11.5 -31.5 C 10.34375 -31.5625 9.1875 -31.476562 8.03125 -31.25 C 6.875 -31.03125 5.800781 -30.675781 4.8125 -30.1875 C 4.425781 -29.945312 4.082031 -29.679688 3.78125 -29.390625 C 2.851562 -28.335938 2.226562 -27.128906 1.90625 -25.765625 C 1.59375 -24.398438 1.421875 -23.039062 1.390625 -21.6875 C 1.242188 -19.320312 1.222656 -16.957031 1.328125 -14.59375 C 1.429688 -12.238281 1.53125 -9.894531 1.625 -7.5625 C 1.65625 -6.6875 1.734375 -5.820312 1.859375 -4.96875 C 1.992188 -4.113281 2.273438 -3.3125 2.703125 -2.5625 C 2.972656 -1.96875 3.316406 -1.484375 3.734375 -1.109375 C 4.148438 -0.734375 4.617188 -0.421875 5.140625 -0.171875 C 5.671875 0.0664062 6.226562 0.238281 6.8125 0.34375 C 7.394531 0.445312 8.003906 0.523438 8.640625 0.578125 C 9.503906 0.640625 10.363281 0.640625 11.21875 0.578125 C 12.082031 0.523438 12.929688 0.378906 13.765625 0.140625 C 14.703125 -0.0976562 15.582031 -0.4375 16.40625 -0.875 C 17.226562 -1.3125 17.894531 -1.890625 18.40625 -2.609375 C 18.945312 -3.484375 19.351562 -4.453125 19.625 -5.515625 C 19.894531 -6.578125 20.054688 -7.632812 20.109375 -8.6875 L 20.25 -10.171875 C 20.375 -11.734375 20.421875 -13.265625 20.390625 -14.765625 C 20.359375 -16.265625 20.382812 -17.804688 20.46875 -19.390625 C 20.5 -20.140625 20.503906 -20.878906 20.484375 -21.609375 C 20.472656 -22.347656 20.441406 -23.09375 20.390625 -23.84375 C 20.328125 -24.320312 20.242188 -24.796875 20.140625 -25.265625 C 20.035156 -25.734375 19.878906 -26.191406 19.671875 -26.640625 Z M 14.84375 -13.5 C 14.84375 -13.4375 14.835938 -13.179688 14.828125 -12.734375 C 14.816406 -12.285156 14.796875 -11.757812 14.765625 -11.15625 C 14.703125 -10.53125 14.675781 -10.03125 14.6875 -9.65625 C 14.707031 -9.28125 14.703125 -8.957031 14.671875 -8.6875 C 14.640625 -8.414062 14.5625 -8.164062 14.4375 -7.9375 C 14.320312 -7.71875 14.128906 -7.425781 13.859375 -7.0625 C 13.410156 -6.550781 12.851562 -6.179688 12.1875 -5.953125 C 11.53125 -5.734375 10.867188 -5.644531 10.203125 -5.6875 C 9.546875 -5.738281 8.929688 -5.925781 8.359375 -6.25 C 7.796875 -6.582031 7.363281 -7.050781 7.0625 -7.65625 C 6.757812 -8.644531 6.578125 -9.6875 6.515625 -10.78125 C 6.460938 -11.875 6.359375 -12.945312 6.203125 -14 C 6.148438 -15.257812 6.144531 -16.519531 6.1875 -17.78125 C 6.226562 -19.039062 6.367188 -20.238281 6.609375 -21.375 C 6.972656 -22.632812 7.679688 -23.671875 8.734375 -24.484375 C 9.210938 -24.835938 9.765625 -25.085938 10.390625 -25.234375 C 11.023438 -25.390625 11.640625 -25.347656 12.234375 -25.109375 C 12.929688 -24.773438 13.476562 -24.265625 13.875 -23.578125 C 14.28125 -22.890625 14.515625 -22.125 14.578125 -21.28125 C 14.609375 -20.769531 14.644531 -20.222656 14.6875 -19.640625 C 14.738281 -19.054688 14.765625 -18.75 14.765625 -18.71875 L 14.84375 -15.65625 Z M 14.84375 -13.5 "/></g></g></g><g fill="#000000" fill-opacity="1"><g transform="translate(215.617948, 202.499987)"><g/></g></g><g fill="#000000" fill-opacity="1"><g transform="translate(224.617936, 202.499987)"><g><path d="M 20.5625 -4.09375 C 20.53125 -4.332031 20.519531 -4.609375 20.53125 -4.921875 C 20.550781 -5.242188 20.578125 -5.550781 20.609375 -5.84375 C 20.640625 -6.175781 20.65625 -6.507812 20.65625 -6.84375 C 20.414062 -6.8125 19.988281 -6.800781 19.375 -6.8125 C 18.757812 -6.832031 18.050781 -6.859375 17.25 -6.890625 C 16.457031 -6.921875 15.617188 -6.957031 14.734375 -7 C 13.847656 -7.039062 13.015625 -7.078125 12.234375 -7.109375 C 11.453125 -7.140625 10.769531 -7.160156 10.1875 -7.171875 C 9.601562 -7.191406 9.207031 -7.171875 9 -7.109375 L 9 -7.15625 C 9.03125 -9.070312 9.035156 -11.054688 9.015625 -13.109375 C 9.003906 -15.171875 8.984375 -17.234375 8.953125 -19.296875 C 8.921875 -21.367188 8.894531 -23.429688 8.875 -25.484375 C 8.863281 -27.546875 8.890625 -29.550781 8.953125 -31.5 C 8.535156 -31.675781 7.976562 -31.8125 7.28125 -31.90625 C 6.59375 -32 5.890625 -32.046875 5.171875 -32.046875 C 4.453125 -32.046875 3.773438 -32.003906 3.140625 -31.921875 C 2.515625 -31.847656 2.050781 -31.753906 1.75 -31.640625 C 1.78125 -29.535156 1.8125 -27.617188 1.84375 -25.890625 C 1.875 -24.171875 1.90625 -22.546875 1.9375 -21.015625 C 1.96875 -19.484375 1.984375 -17.984375 1.984375 -16.515625 C 1.984375 -15.046875 1.972656 -13.519531 1.953125 -11.9375 C 1.941406 -10.363281 1.90625 -8.671875 1.84375 -6.859375 C 1.78125 -5.046875 1.707031 -3.015625 1.625 -0.765625 L 1.625 0.046875 C 5.25 0.109375 8.148438 0.140625 10.328125 0.140625 C 12.503906 0.140625 14.210938 0.125 15.453125 0.09375 C 16.703125 0.0625 17.585938 0.03125 18.109375 0 C 18.640625 -0.03125 19.066406 -0.03125 19.390625 0 C 19.722656 0 19.976562 -0.00390625 20.15625 -0.015625 C 20.34375 -0.0351562 20.472656 -0.171875 20.546875 -0.421875 C 20.617188 -0.679688 20.65625 -1.085938 20.65625 -1.640625 C 20.65625 -2.191406 20.625 -3.007812 20.5625 -4.09375 Z M 20.5625 -4.09375 "/></g></g></g><g fill="#000000" fill-opacity="1"><g transform="translate(245.362914, 202.499987)"><g><path d="M 8.90625 -31.640625 C 7.5625 -31.609375 6.535156 -31.613281 5.828125 -31.65625 C 5.117188 -31.695312 4.492188 -31.734375 3.953125 -31.765625 C 3.742188 -31.765625 3.421875 -31.785156 2.984375 -31.828125 C 2.554688 -31.878906 2.265625 -31.890625 2.109375 -31.859375 L 2.109375 -31.765625 C 1.835938 -29.242188 1.707031 -26.671875 1.71875 -24.046875 C 1.738281 -21.421875 1.785156 -18.765625 1.859375 -16.078125 C 1.941406 -13.398438 1.992188 -10.695312 2.015625 -7.96875 C 2.046875 -5.238281 1.957031 -2.519531 1.75 0.1875 C 2.050781 0.09375 2.609375 0.0664062 3.421875 0.109375 C 4.234375 0.160156 5.082031 0.195312 5.96875 0.21875 C 6.851562 0.25 7.675781 0.242188 8.4375 0.203125 C 9.195312 0.160156 9.695312 0.0195312 9.9375 -0.21875 C 9.789062 -2.769531 9.703125 -5.347656 9.671875 -7.953125 C 9.640625 -10.566406 9.644531 -13.1875 9.6875 -15.8125 C 9.738281 -18.4375 9.800781 -21.050781 9.875 -23.65625 C 9.945312 -26.269531 9.984375 -28.867188 9.984375 -31.453125 L 9.984375 -31.640625 Z M 8.90625 -31.640625 "/></g></g></g><g fill="#000000" fill-opacity="1"><g transform="translate(257.062907, 202.499987)"><g><path d="M 15.890625 -11.75 C 15.972656 -11.75 16.015625 -11.773438 16.015625 -11.828125 C 15.960938 -12.367188 15.941406 -13.015625 15.953125 -13.765625 C 15.960938 -14.515625 15.984375 -15.253906 16.015625 -15.984375 C 16.046875 -16.722656 16.050781 -17.394531 16.03125 -18 C 16.019531 -18.601562 15.972656 -19.007812 15.890625 -19.21875 C 15.554688 -19.1875 15.148438 -19.15625 14.671875 -19.125 C 14.191406 -19.09375 13.695312 -19.078125 13.1875 -19.078125 C 12.675781 -19.078125 12.15625 -19.082031 11.625 -19.09375 C 11.101562 -19.113281 10.632812 -19.15625 10.21875 -19.21875 C 10.1875 -19.21875 10.15625 -19.234375 10.125 -19.265625 C 9.851562 -19.742188 9.6875 -20.34375 9.625 -21.0625 C 9.570312 -21.78125 9.707031 -22.53125 10.03125 -23.3125 C 10.96875 -23.394531 11.96875 -23.46875 13.03125 -23.53125 C 14.09375 -23.59375 15.15625 -23.644531 16.21875 -23.6875 C 17.28125 -23.738281 18.3125 -23.789062 19.3125 -23.84375 C 20.320312 -23.90625 21.234375 -23.96875 22.046875 -24.03125 C 22.078125 -24.414062 22.09375 -24.898438 22.09375 -25.484375 C 22.09375 -26.078125 22.09375 -26.695312 22.09375 -27.34375 C 22.09375 -27.988281 22.082031 -28.609375 22.0625 -29.203125 C 22.050781 -29.804688 22.046875 -30.300781 22.046875 -30.6875 C 21.210938 -30.894531 20.207031 -31.054688 19.03125 -31.171875 C 17.863281 -31.296875 16.617188 -31.363281 15.296875 -31.375 C 13.972656 -31.394531 12.628906 -31.382812 11.265625 -31.34375 C 9.898438 -31.300781 8.609375 -31.234375 7.390625 -31.140625 C 6.179688 -31.046875 5.097656 -30.953125 4.140625 -30.859375 C 3.179688 -30.773438 2.445312 -30.6875 1.9375 -30.59375 L 1.9375 -30.5625 C 1.9375 -28.21875 1.9375 -26.09375 1.9375 -24.1875 C 1.9375 -22.28125 1.925781 -20.5 1.90625 -18.84375 C 1.894531 -17.195312 1.890625 -15.628906 1.890625 -14.140625 C 1.890625 -12.660156 1.878906 -11.1875 1.859375 -9.71875 C 1.847656 -8.25 1.84375 -6.726562 1.84375 -5.15625 C 1.84375 -3.582031 1.84375 -1.894531 1.84375 -0.09375 L 1.890625 -0.046875 C 2.003906 0.015625 2.367188 0.0625 2.984375 0.09375 C 3.609375 0.125 4.320312 0.140625 5.125 0.140625 C 5.9375 0.140625 6.753906 0.125 7.578125 0.09375 C 8.398438 0.0625 9.113281 0.015625 9.71875 -0.046875 C 9.75 -1.753906 9.78125 -3.546875 9.8125 -5.421875 C 9.84375 -7.296875 9.929688 -9.175781 10.078125 -11.0625 L 10.125 -11.0625 C 11.019531 -11.21875 11.96875 -11.332031 12.96875 -11.40625 C 13.976562 -11.476562 14.953125 -11.59375 15.890625 -11.75 Z M 15.890625 -11.75 "/></g></g></g><g fill="#000000" fill-opacity="1"><g transform="translate(279.292882, 202.499987)"><g><path d="M 20.828125 -6.125 C 18.796875 -6.0625 16.816406 -6.082031 14.890625 -6.1875 C 12.972656 -6.289062 11.023438 -6.34375 9.046875 -6.34375 L 9 -6.390625 C 8.9375 -7.109375 8.882812 -8.003906 8.84375 -9.078125 C 8.800781 -10.160156 8.851562 -11.140625 9 -12.015625 C 9.144531 -12.128906 9.425781 -12.203125 9.84375 -12.234375 C 10.269531 -12.265625 10.742188 -12.28125 11.265625 -12.28125 C 11.796875 -12.28125 12.34375 -12.285156 12.90625 -12.296875 C 13.476562 -12.316406 13.988281 -12.390625 14.4375 -12.515625 C 14.414062 -13.617188 14.429688 -14.679688 14.484375 -15.703125 C 14.546875 -16.722656 14.503906 -17.742188 14.359375 -18.765625 L 14.359375 -18.8125 C 13.421875 -18.84375 12.488281 -18.859375 11.5625 -18.859375 C 10.632812 -18.859375 9.71875 -18.882812 8.8125 -18.9375 L 8.78125 -18.984375 C 8.5625 -19.796875 8.503906 -20.660156 8.609375 -21.578125 C 8.722656 -22.492188 8.765625 -23.382812 8.734375 -24.25 L 8.78125 -24.296875 L 8.90625 -24.296875 C 9.894531 -24.390625 10.882812 -24.4375 11.875 -24.4375 C 12.863281 -24.4375 13.851562 -24.425781 14.84375 -24.40625 C 15.832031 -24.394531 16.816406 -24.410156 17.796875 -24.453125 C 18.773438 -24.503906 19.742188 -24.632812 20.703125 -24.84375 L 20.703125 -24.890625 C 20.703125 -25.929688 20.738281 -26.992188 20.8125 -28.078125 C 20.882812 -29.160156 20.847656 -30.226562 20.703125 -31.28125 C 20.703125 -31.300781 20.398438 -31.328125 19.796875 -31.359375 C 19.203125 -31.390625 18.410156 -31.40625 17.421875 -31.40625 C 16.429688 -31.40625 15.289062 -31.390625 14 -31.359375 C 12.707031 -31.328125 11.367188 -31.296875 9.984375 -31.265625 C 8.609375 -31.242188 7.238281 -31.207031 5.875 -31.15625 C 4.507812 -31.113281 3.238281 -31.0625 2.0625 -31 C 1.914062 -28.425781 1.828125 -25.863281 1.796875 -23.3125 C 1.765625 -20.757812 1.765625 -18.207031 1.796875 -15.65625 C 1.828125 -13.101562 1.875 -10.546875 1.9375 -7.984375 C 2 -5.421875 2.03125 -2.832031 2.03125 -0.21875 C 4.9375 0.0195312 7.972656 0.0859375 11.140625 -0.015625 C 14.304688 -0.128906 17.414062 -0.171875 20.46875 -0.140625 C 20.707031 -1.035156 20.84375 -2 20.875 -3.03125 C 20.90625 -4.070312 20.890625 -5.070312 20.828125 -6.03125 Z M 20.828125 -6.125 "/></g></g></g></svg>